<svg xmlns="http://www.w3.org/2000/svg" viewBox="0 0 32 32"><defs><style>.cls-1{fill:#ffe082;}.cls-2{fill:#ffb74d;}.cls-3{fill:#039be5;}</style></defs><title>firenze.dev is active</title><g id="event_calendar" data-name="event calendar"><rect class="cls-1" x="1" y="1" width="30" height="30" rx="1" ry="1"></rect><path class="cls-2" d="M30,1H2A1,1,0,0,0,1,2V7H31V2A1,1,0,0,0,30,1Z"></path><rect class="cls-3" x="11" y="10" width="4" height="4" rx="1" ry="1"></rect><rect class="cls-3" x="17" y="10" width="4" height="4" rx="1" ry="1"></rect><rect class="cls-3" x="23" y="10" width="4" height="4" rx="1" ry="1"></rect><rect class="cls-3" x="11" y="16" width="4" height="4" rx="1" ry="1"></rect><rect class="cls-3" x="5" y="16" width="4" height="4" rx="1" ry="1"></rect><rect class="cls-3" x="17" y="16" width="4" height="4" rx="1" ry="1"></rect><rect class="cls-3" x="23" y="16" width="4" height="4" rx="1" ry="1"></rect><rect class="cls-3" x="5" y="22" width="4" height="4" rx="1" ry="1"></rect><rect class="cls-3" x="11" y="22" width="4" height="4" rx="1" ry="1"></rect><rect class="cls-3" x="17" y="22" width="4" height="4" rx="1" ry="1"></rect></g></svg>