<svg width="1034.7" height="688.22" version="1.1" viewBox="0 0 273.75 182.09" xmlns="http://www.w3.org/2000/svg"><g transform="translate(2.3749 -19.028)"><path d="m68.355 166.69v25.568c0 1.9594 1.6006 3.5362 3.5884 3.5362h125.11c1.9879 0 3.5884-1.5768 3.5884-3.5362v-25.568zm16.933 5.5562a8.9958 8.9958 0 0 1 8.9958 8.9958 8.9958 8.9958 0 0 1-8.9958 8.9958 8.9958 8.9958 0 0 1-8.9958-8.9958 8.9958 8.9958 0 0 1 8.9958-8.9958zm49.213 0a8.9958 8.9958 0 0 1 8.9958 8.9958 8.9958 8.9958 0 0 1-8.9958 8.9958 8.9958 8.9958 0 0 1-8.9958-8.9958 8.9958 8.9958 0 0 1 8.9958-8.9958zm49.212 0a8.9958 8.9958 0 0 1 8.9958 8.9958 8.9958 8.9958 0 0 1-8.9958 8.9958 8.9958 8.9958 0 0 1-8.9958-8.9958 8.9958 8.9958 0 0 1 8.9958-8.9958z" fill="#b5b5b5" fill-rule="evenodd" stroke-width=".95057"/><g fill="#666"><path d="m166.78 156.1h33.867v7.9375h-33.867z" stroke-width=".40672"/><path d="m104.87 156.1h59.267v7.9375h-59.267z" stroke-width=".53805"/><path d="m68.355 156.1h33.867v7.9375h-33.867z" stroke-width=".40672"/></g><g fill="#ae3f25"><path d="m146.31 74.613a79.375 105.83 0 0 1 54.337 74.487v4.3589h-33.91a81.663 126.46 0.10677 0 0-23.225-78.846z"/><path d="m122.69 74.613a79.375 105.83 0 0 0-54.337 74.487v4.3589h33.91a126.46 81.663 89.893 0 1 23.225-78.846z"/><path d="m128.09 74.613a126.46 81.663 89.893 0 0-23.126 78.846h59.082a81.663 126.46 0.10677 0 0-23.126-78.846h-6.4151z" stroke-width="1.0588"/></g><path d="m134.5 36.248-7.4083 17.069v3.7202a6.0804 9.9219 0 0 1 0.0134 0.65371 6.0804 9.9219 0 0 1-4.5114 9.5824v4.6933h23.812v-4.6933a6.0804 9.9219 0 0 1-4.5114-9.5824 6.0804 9.9219 0 0 1 0.0134-0.65371v-3.7202z" fill="#b5b5b5" stroke-width=".22302"/><circle cx="134.5" cy="28.84" r="4.7625" fill="#e6bc33" stroke-width=".3175"/><g font-family="Georgia" font-size="194.03px" letter-spacing="0px" stroke-width=".26458"><text x="-7.7750936" y="160.28598" style="line-height:1.25" xml:space="preserve"><tspan x="-7.7750936" y="160.28598" dx="0" dy="0" rotate="0 0" fill="#222222" font-family="Arial" font-size="194.03px" stroke-width=".26458">{</tspan></text><text x="212.06952" y="160.286" style="line-height:1.25" xml:space="preserve"><tspan x="212.06952" y="160.286" rotate="0 0" fill="#222222" font-family="Arial" font-size="194.03px" stroke-width=".26458">}</tspan></text></g></g><g transform="translate(2.3749 -19.028)" display="none"><text x="7.0676823" y="255.63643" font-family="Georgia" font-size="49.389px" stroke-width=".26458" style="line-height:1.25" xml:space="preserve"><tspan x="7.0676823" y="255.63643" font-size="49.389px" stroke-width=".26458">firenze<tspan font-family="Georgia" font-weight="bold">.dev</tspan></tspan></text></g></svg>
