<?xml version="1.0" encoding="utf-8"?>
<!-- Generator: Adobe Illustrator 25.4.1, SVG Export Plug-In . SVG Version: 6.00 Build 0)  -->
<svg version="1.1" id="Livello_1" xmlns="http://www.w3.org/2000/svg" xmlns:xlink="http://www.w3.org/1999/xlink" x="0px" y="0px"
	 viewBox="0 0 124.4 28" style="enable-background:new 0 0 124.4 28;" xml:space="preserve">
<style type="text/css">
	.st0{fill:#00B0FF;}
	.st1{fill:#020033;}
</style>
<g>
	<path class="st0" d="M118.7,2.8c0,3.7,5.7,3.7,5.7,0C124.4-0.9,118.7-0.9,118.7,2.8z"/>
	<path class="st1" d="M10.8,23.7c-3.4,0-5.5-1.7-5.8-4.1h15.2c0.7-7.9-3.3-11.9-9.8-11.9C4,7.6,0,11.9,0,17.7C0,23.9,4,28,10.7,28
		c3,0,6.3-1,8.4-3.1l-3.1-3C14.9,23,12.6,23.7,10.8,23.7z M10.5,11.9c2.8,0,4.7,1.2,5.1,3.8H5.1C5.8,13.1,7.9,11.9,10.5,11.9
		L10.5,11.9z"/>
	<path class="st1" d="M49.8,23.4c-1.5,0-2.5-0.9-2.5-2.7v-8.3h5.4V8.3h-5.4V2.8l-4.8,0.5v5h-8.6l-3.8,6.5l-3.8-6.5h-5.8v0.2l6.4,9.3
		l-6.8,9.7v0.1h5.8l4.2-6.4l4.2,6.4h5.8v-0.1l-6.8-9.7l3.7-5.3h5.6v8.3c0,4.8,2.8,7.2,7,7c1.4,0,2.7-0.3,4-0.8l-1.3-4.1
		C51.5,23.2,50.7,23.4,49.8,23.4z M86.3,7.9c-2.4,0-4.4,1-6.4,2.9l-0.3-2.6h-4.3v19.3h4.8v-9.9c0-2.9,2-5.4,5-5.4
		c3.1,0,4.7,2.2,4.7,5.2v10.1h4.8V17.4C94.5,11.3,90.9,7.9,86.3,7.9L86.3,7.9z M124,8.1h-4.8v19.3h4.8V8.1z M112.1,10.8
		c-1.1-2-4.3-3.1-6.4-3.1c-5.7,0-9.9,3.4-9.9,10.1c0,6.3,4.3,10.1,10,10.1c2.4,0,4.8-0.8,6.3-3.1l0.3,2.7h4.5V0.2h-4.8
		C112.1,0.2,112.1,10.8,112.1,10.8z M106.1,23.5c-0.7,0-1.5-0.1-2.2-0.4c-0.7-0.3-1.3-0.7-1.8-1.2c-1-1.1-1.6-2.5-1.5-4
		c0-3.5,2.4-5.6,5.5-5.6c1.5,0,3,0.6,4,1.7c1.1,1.1,1.7,2.5,1.7,4c0,1.5-0.6,2.9-1.7,4C109.1,22.9,107.7,23.5,106.1,23.5z M63.8,7.6
		c-6.3,0-10.3,4.2-10.3,10.1c0,6.2,4,10.3,10.7,10.3c3,0,6.3-1,8.4-3.1l-3.1-3c-1.1,1.1-3.4,1.8-5.2,1.8c-3.4,0-5.5-1.7-5.8-4.1
		h15.2C74.4,11.6,70.3,7.6,63.8,7.6z M58.5,15.6c0.7-2.5,2.8-3.8,5.4-3.8c2.8,0,4.7,1.2,5.1,3.8H58.5L58.5,15.6z"/>
</g>
</svg>
