<svg enable-background="new 0 0 256 256" version="1.1" viewBox="0 0 256 256" xml:space="preserve" xmlns="http://www.w3.org/2000/svg"><defs><filter id="filter1754" x="0" y="0" width="1" height="1" color-interpolation-filters="sRGB"><feColorMatrix values="2 -0.5 -0.5 0 0 -0.5 2 -0.5 0 0 -0.5 -0.5 2 0 0 0 0 0 1 0 "/></filter></defs>
<style type="text/css">
	.st0{fill:#4C4372;}
	.st1{fill:#F0C48A;}
	.st2{fill:#FD919E;}
	.st3{fill:#D3E6F8;}
	.st4{fill:#A4CFF2;}
	.st5{fill:#FFFFFF;}
	.st6{fill:#7BABF1;}
	.st7{fill:#E8677D;}
</style>
<g filter="url(#filter1754)">
	
		
			<circle class="st1" cx="128" cy="128" r="103.5"/>
		
	
	
		<rect class="st6" x="170.55" y="109.85" width="13.46" height="20.369"/>
	
	
		<rect class="st4" x="95.304" y="85.472" width="65.393" height="56.723"/>
	
	
		<rect class="st6" x="144.46" y="85.472" width="16.235" height="56.723"/>
	
	
		<rect class="st3" x="66.856" y="65.817" width="122.29" height="19.654"/>
	
	
		<rect class="st4" x="144.46" y="65.817" width="44.683" height="19.654"/>
	
	
		<path class="st0" d="m160.7 145.19h-65.392c-1.657 0-3-1.343-3-3v-56.722c0-1.657 1.343-3 3-3h65.393c1.657 0 3 1.343 3 3v56.723c-1e-3 1.657-1.343 2.999-3.001 2.999zm-62.392-6h59.393v-50.722h-59.393z"/>
	
	
		<path class="st0" d="m189.14 88.472h-122.29c-1.657 0-3-1.343-3-3v-19.655c0-1.657 1.343-3 3-3h122.29c1.657 0 3 1.343 3 3v19.654c1e-3 1.658-1.342 3.001-2.999 3.001zm-119.29-6h116.29v-13.655h-116.29z"/>
	
	
		<path class="st0" d="m128 180.25c-1.657 0-3-1.343-3-3v-35.052c0-1.657 1.343-3 3-3s3 1.343 3 3v35.052c0 1.657-1.343 3-3 3z"/>
	
	
		<path class="st0" d="m181 180.25h-105.99c-1.657 0-3-1.343-3-3s1.343-3 3-3h105.99c1.657 0 3 1.343 3 3s-1.343 3-3 3z"/>
	
	
		<path class="st0" d="m177.28 112.85c-1.657 0-3-1.343-3-3v-24.376c0-1.657 1.343-3 3-3s3 1.343 3 3v24.376c0 1.657-1.342 3-3 3z"/>
	
	
		<path class="st0" d="m184.01 133.22h-13.46c-1.657 0-3-1.343-3-3v-20.369c0-1.657 1.343-3 3-3h13.46c1.657 0 3 1.343 3 3v20.369c0 1.657-1.343 3-3 3zm-10.46-6h7.46v-14.369h-7.46z"/>
	
	
		<circle class="st2" cx="62.068" cy="177.25" r="12.937"/>
	
	
		<circle class="st2" cx="128" cy="177.25" r="12.938"/>
	
	
		<circle class="st2" cx="193.93" cy="177.25" r="12.937"/>
	
	
		<path class="st0" d="m62.067 193.18c-8.787 0-15.937-7.149-15.937-15.937s7.149-15.938 15.937-15.938 15.938 7.149 15.938 15.938c0 8.787-7.15 15.937-15.938 15.937zm0-25.874c-5.479 0-9.937 4.458-9.937 9.938s4.457 9.937 9.937 9.937 9.938-4.457 9.938-9.937-4.458-9.938-9.938-9.938z"/>
	
	
		<path class="st0" d="m128 193.18c-8.788 0-15.938-7.149-15.938-15.937s7.149-15.938 15.938-15.938 15.938 7.149 15.938 15.938c0 8.787-7.15 15.937-15.938 15.937zm0-25.874c-5.479 0-9.938 4.458-9.938 9.938s4.458 9.937 9.938 9.937 9.938-4.457 9.938-9.937-4.459-9.938-9.938-9.938z"/>
	
	
		<path class="st0" d="m193.93 193.18c-8.788 0-15.938-7.149-15.938-15.937s7.149-15.938 15.938-15.938c8.787 0 15.937 7.149 15.937 15.938-1e-3 8.787-7.15 15.937-15.937 15.937zm0-25.874c-5.479 0-9.938 4.458-9.938 9.938s4.458 9.937 9.938 9.937 9.937-4.457 9.937-9.937-4.458-9.938-9.937-9.938z"/>
	
</g>
</svg>
