<svg enable-background="new 0 0 256 256" version="1.1" viewBox="0 0 256 256" xml:space="preserve" xmlns="http://www.w3.org/2000/svg"><defs><filter id="filter2187" x="0" y="0" width="1" height="1" color-interpolation-filters="sRGB"><feColorMatrix values="2 -0.5 -0.5 0 0 -0.5 2 -0.5 0 0 -0.5 -0.5 2 0 0 0 0 0 1 0 "/></filter></defs>
<style type="text/css">
	.st0{fill:#4C4372;}
	.st1{fill:#F0C48A;}
	.st2{fill:#FD919E;}
	.st3{fill:#D3E6F8;}
	.st4{fill:#A4CFF2;}
	.st5{fill:#FFFFFF;}
	.st6{fill:#7BABF1;}
	.st7{fill:#E8677D;}
</style>
<g filter="url(#filter2187)">
	
		<circle class="st1" cx="128" cy="128" r="103.5"/>
	
	
		<path class="st0" d="m128 200.57c-1.657 0-3-1.343-3-3v-139.14c0-1.657 1.343-3 3-3s3 1.343 3 3v139.14c0 1.657-1.343 3-3 3z"/>
	
	
		<path class="st0" d="m128 200.57c-1.657 0-3-1.343-3-3v-139.14c0-1.657 1.343-3 3-3s3 1.343 3 3v139.14c0 1.657-1.343 3-3 3z"/>
	
	
		<circle class="st6" cx="128" cy="204.55" r="13.128"/>
	
	
		<path class="st0" d="m128 220.68c-8.893 0-16.128-7.235-16.128-16.128 0-8.894 7.235-16.129 16.128-16.129s16.128 7.235 16.128 16.129c0 8.893-7.235 16.128-16.128 16.128zm0-26.257c-5.585 0-10.128 4.544-10.128 10.129s4.543 10.128 10.128 10.128 10.128-4.543 10.128-10.128-4.543-10.129-10.128-10.129z"/>
	
	
		<circle class="st6" cx="128" cy="51.45" r="13.128"/>
	
	
		<path class="st0" d="m128 67.579c-8.893 0-16.128-7.235-16.128-16.129 0-8.893 7.235-16.128 16.128-16.128s16.128 7.235 16.128 16.128c0 8.894-7.235 16.129-16.128 16.129zm0-26.257c-5.585 0-10.128 4.543-10.128 10.128s4.543 10.129 10.128 10.129 10.128-4.544 10.128-10.129-4.543-10.128-10.128-10.128z"/>
	
	
		<path class="st0" d="m197.57 131h-139.14c-1.657 0-3-1.343-3-3s1.343-3 3-3h139.14c1.657 0 3 1.343 3 3s-1.343 3-3 3z"/>
	
	
		<circle class="st6" cx="51.45" cy="128" r="13.128"/>
	
	
		<path class="st0" d="m51.45 144.13c-8.893 0-16.128-7.235-16.128-16.128s7.235-16.128 16.128-16.128c8.894 0 16.129 7.235 16.129 16.128s-7.235 16.128-16.129 16.128zm0-26.256c-5.585 0-10.128 4.543-10.128 10.128s4.543 10.128 10.128 10.128 10.129-4.543 10.129-10.128-4.544-10.128-10.129-10.128z"/>
	
	
		<circle class="st6" cx="204.55" cy="128" r="13.128"/>
	
	
		<path class="st0" d="m204.55 144.13c-8.894 0-16.129-7.235-16.129-16.128s7.235-16.128 16.129-16.128c8.893 0 16.128 7.235 16.128 16.128s-7.235 16.128-16.128 16.128zm0-26.256c-5.585 0-10.129 4.543-10.129 10.128s4.544 10.128 10.129 10.128 10.128-4.543 10.128-10.128-4.543-10.128-10.128-10.128z"/>
	
	
		<path class="st0" d="m177.2 180.2c-0.768 0-1.536-0.293-2.121-0.879l-98.39-98.39c-1.172-1.171-1.172-3.071 0-4.242 1.171-1.172 3.071-1.172 4.242 0l98.39 98.39c1.172 1.171 1.172 3.071 0 4.242-0.586 0.586-1.354 0.879-2.121 0.879z"/>
	
	
		<path class="st0" d="m177.2 180.2c-0.768 0-1.536-0.293-2.121-0.879l-98.39-98.39c-1.172-1.171-1.172-3.071 0-4.242 1.171-1.172 3.071-1.172 4.242 0l98.39 98.39c1.172 1.171 1.172 3.071 0 4.242-0.586 0.586-1.354 0.879-2.121 0.879z"/>
	
	
		<circle class="st6" cx="182.13" cy="182.13" r="13.128"/>
	
	
		<path class="st0" d="m182.13 198.26c-4.308 0-8.358-1.678-11.404-4.724-3.047-3.046-4.725-7.096-4.725-11.404s1.678-8.358 4.725-11.405c3.046-3.046 7.096-4.724 11.404-4.724s8.358 1.678 11.404 4.724 4.724 7.096 4.724 11.404-1.678 8.358-4.724 11.404c-3.046 3.048-7.096 4.725-11.404 4.725zm0-26.257c-2.706 0-5.249 1.054-7.162 2.966-1.913 1.913-2.967 4.457-2.967 7.162s1.054 5.249 2.967 7.162 4.457 2.967 7.162 2.967 5.249-1.054 7.162-2.966c1.913-1.913 2.966-4.457 2.966-7.162s-1.054-5.249-2.966-7.162c-1.913-1.913-4.457-2.967-7.162-2.967z"/>
	
	
		<circle class="st6" cx="73.871" cy="73.871" r="13.128"/>
	
	
		<path class="st0" d="m73.871 90c-4.308 0-8.358-1.678-11.404-4.724s-4.724-7.096-4.724-11.404 1.678-8.358 4.724-11.404 7.096-4.724 11.404-4.724 8.358 1.678 11.404 4.724c3.047 3.045 4.725 7.095 4.725 11.403s-1.678 8.358-4.724 11.404c-3.047 3.047-7.097 4.725-11.405 4.725zm0-26.257c-2.706 0-5.249 1.054-7.162 2.966-1.913 1.913-2.966 4.457-2.966 7.162s1.054 5.249 2.966 7.162c1.913 1.913 4.457 2.967 7.162 2.967s5.249-1.054 7.162-2.966c1.913-1.914 2.967-4.457 2.967-7.163s-1.054-5.249-2.966-7.162c-1.914-1.913-4.457-2.966-7.163-2.966z"/>
	
	
		<path class="st0" d="m78.805 180.2c-0.768 0-1.536-0.293-2.121-0.879-1.172-1.171-1.172-3.071 0-4.242l98.39-98.39c1.171-1.172 3.071-1.172 4.242 0 1.172 1.171 1.172 3.071 0 4.242l-98.39 98.39c-0.585 0.586-1.353 0.879-2.121 0.879z"/>
	
	
		<circle class="st6" cx="73.871" cy="182.13" r="13.128"/>
	
	
		<path class="st0" d="m73.871 198.26c-4.308 0-8.358-1.678-11.404-4.724s-4.724-7.096-4.724-11.404 1.678-8.358 4.724-11.404 7.096-4.724 11.404-4.724 8.358 1.678 11.404 4.724 4.724 7.096 4.724 11.404-1.678 8.358-4.724 11.404c-3.046 3.047-7.096 4.724-11.404 4.724zm0-26.257c-2.706 0-5.249 1.054-7.162 2.966-1.913 1.913-2.966 4.457-2.966 7.162s1.054 5.249 2.966 7.162c1.913 1.913 4.457 2.966 7.162 2.966s5.249-1.054 7.162-2.966c1.913-1.913 2.966-4.457 2.966-7.162s-1.054-5.249-2.966-7.162c-1.913-1.912-4.456-2.966-7.162-2.966z"/>
	
	
		<circle class="st6" cx="182.13" cy="73.871" r="13.128"/>
	
	
		<path class="st0" d="m182.13 90c-4.308 0-8.358-1.678-11.404-4.724-3.047-3.047-4.725-7.097-4.725-11.405s1.678-8.358 4.725-11.405c3.046-3.046 7.096-4.724 11.404-4.724s8.358 1.678 11.404 4.724 4.724 7.096 4.724 11.404-1.678 8.358-4.724 11.404c-3.046 3.048-7.096 4.726-11.404 4.726zm0-26.257c-2.706 0-5.249 1.054-7.162 2.966-1.913 1.913-2.967 4.457-2.967 7.162s1.054 5.249 2.967 7.162 4.457 2.967 7.162 2.967 5.249-1.054 7.162-2.966c1.913-1.913 2.966-4.457 2.966-7.162s-1.054-5.249-2.966-7.162c-1.913-1.914-4.457-2.967-7.162-2.967z"/>
	
	
		<circle class="st4" cx="128" cy="128" r="45.136"/>
	
	
		<path class="st0" d="m128 176.14c-26.542 0-48.136-21.594-48.136-48.136s21.594-48.136 48.136-48.136 48.136 21.594 48.136 48.136-21.594 48.136-48.136 48.136zm0-90.272c-23.234 0-42.136 18.902-42.136 42.136s18.902 42.136 42.136 42.136 42.136-18.902 42.136-42.136-18.902-42.136-42.136-42.136z"/>
	
	
		<path class="st2" d="m147.33 138.47h-38.661c-3.444 0-6.235 2.791-6.235 6.235v20.486c7.269 5.006 16.073 7.943 25.566 7.943s18.297-2.937 25.566-7.943v-20.486c-1e-3 -3.443-2.793-6.235-6.236-6.235z"/>
	
	
		<path class="st0" d="m128 176.14c-9.791 0-19.22-2.93-27.268-8.473-0.813-0.56-1.298-1.484-1.298-2.471v-20.486c0-5.092 4.143-9.235 9.235-9.235h38.661c5.092 0 9.235 4.143 9.235 9.235v20.486c0 0.987-0.485 1.911-1.298 2.471-8.047 5.543-17.476 8.473-27.267 8.473zm-22.566-12.554c6.749 4.292 14.517 6.554 22.566 6.554s15.817-2.262 22.566-6.554v-18.875c0-1.784-1.451-3.235-3.235-3.235h-38.661c-1.784 0-3.235 1.451-3.235 3.235v18.875z"/>
	
	
		<path class="st3" d="m128 147.39c-3.102 0-5.617-2.515-5.617-5.617v-15.301h11.233v15.301c1e-3 3.101-2.514 5.617-5.616 5.617z"/>
	
	
		<path class="st0" d="m128 150.39c-4.751 0-8.617-3.866-8.617-8.617v-15.301c0-1.657 1.343-3 3-3h11.233c1.657 0 3 1.343 3 3v15.301c1e-3 4.751-3.865 8.617-8.616 8.617zm-2.617-20.918v12.301c0 1.443 1.174 2.617 2.617 2.617s2.617-1.174 2.617-2.617v-12.301z"/>
	
	
		<path class="st5" d="m128 133.15c-8.179 0-14.81-6.631-14.81-14.81v-8.078c0-8.179 6.63-14.81 14.81-14.81 8.179 0 14.81 6.631 14.81 14.81v8.078c0 8.179-6.631 14.81-14.81 14.81z"/>
	
	
		<path class="st0" d="m128 136.15c-9.82 0-17.81-7.989-17.81-17.81v-8.078c0-9.82 7.989-17.81 17.81-17.81s17.81 7.989 17.81 17.81v8.078c0 9.821-7.99 17.81-17.81 17.81zm0-37.697c-6.512 0-11.81 5.298-11.81 11.81v8.078c0 6.512 5.298 11.81 11.81 11.81s11.81-5.298 11.81-11.81v-8.078c0-6.512-5.298-11.81-11.81-11.81z"/>
	
</g>
</svg>
