<svg xmlns:inkscape="http://www.inkscape.org/namespaces/inkscape" xmlns:sodipodi="http://sodipodi.sourceforge.net/DTD/sodipodi-0.dtd" xmlns="http://www.w3.org/2000/svg" xmlns:svg="http://www.w3.org/2000/svg" height="56.693px" id="Layer_1" viewBox="0 0 56.693 56.693" width="56.693px" xml:space="preserve" sodipodi:docname="linkedin.svg" inkscape:version="1.1 (c68e22c387, 2021-05-23)"><defs id="defs15"></defs><g id="g10" style="fill:#b5b5b5;fill-opacity:1"><path style="fill:#b5b5b5;fill-opacity:1" d="m 28.347,5.155 c -13.6,0 -24.625,11.025 -24.625,24.625 0,13.602 11.025,24.625 24.625,24.625 C 41.945,54.405 52.97,43.382 52.97,29.78 52.97,16.181 41.944,5.155 28.347,5.155 Z m 13.715,36.586 c 0,1.096 -0.91,1.982 -2.031,1.982 H 16.613 c -1.123,0 -2.031,-0.887 -2.031,-1.982 V 18.052 c 0,-1.094 0.908,-1.982 2.031,-1.982 H 40.03 c 1.121,0 2.031,0.889 2.031,1.982 v 23.689 z" id="path2"></path><path style="fill:#b5b5b5;fill-opacity:1" d="m 33.099,26.441 c -2.201,0 -3.188,1.209 -3.74,2.061 v 0.041 h -0.027 c 0.01,-0.012 0.02,-0.027 0.027,-0.041 v -1.768 h -4.15 c 0.055,1.17 0,12.484 0,12.484 h 4.15 v -6.973 c 0,-0.375 0.027,-0.744 0.137,-1.012 0.301,-0.744 0.984,-1.52 2.129,-1.52 1.504,0 2.104,1.146 2.104,2.824 v 6.68 h 4.15 V 32.06 c -10e-4,-3.836 -2.05,-5.619 -4.78,-5.619 z" id="path4"></path><path style="fill:#b5b5b5;fill-opacity:1" d="m 20.864,20.712 c -1.419,0 -2.349,0.934 -2.349,2.159 0,1.197 0.9,2.158 2.294,2.158 h 0.027 c 1.447,0 2.348,-0.961 2.348,-2.158 -0.027,-1.225 -0.9,-2.159 -2.32,-2.159 z" id="path6"></path><path id="rect8" d="m 18.761999,26.733999 h 4.151 v 12.484 h -4.151 z" style="fill:#b5b5b5;fill-opacity:1"></path></g></svg>