<svg xmlns="http://www.w3.org/2000/svg" viewBox="0 0 32 32"><defs><style>.cls-1{fill:#ffb74d;}.cls-2{fill:#ffe082;}.cls-3{fill:#039be5;}</style></defs><title>firenze.dev is free</title><g id="donation"><path class="cls-1" d="M26.69,20.6l-8.62,2.34-1.33-.57a3,3,0,0,0,.8-1.42,3,3,0,0,0-1.76-3.56l-5.39-2.31a1,1,0,0,0-.84,0l-4,2A1,1,0,0,0,5,18v8a1,1,0,0,0,.42.81,1,1,0,0,0,.9.14L9,26.05,17.68,29a1,1,0,0,0,.68,0c11.17-4.28,10.57-4,10.75-4.13A2.43,2.43,0,0,0,26.69,20.6Z"></path><rect class="cls-2" x="1" y="15" width="6" height="12" rx="1" ry="1"></rect><path class="cls-3" d="M19.71,13.94a1,1,0,1,1,1.41-1.41,2.62,2.62,0,0,0,1.63.48c1.39,0,2-.76,2-1.53a1.1,1.1,0,0,0-1.24-1.13A4.16,4.16,0,0,1,19.48,8c-1.23-3,2.25-6.78,6.16-4.17a1,1,0,0,1,.28,1.38,1,1,0,0,1-1.39.28c-2.11-1.44-3.72.51-3.21,1.75a2.27,2.27,0,0,0,2.21,1.09,3.08,3.08,0,0,1,3.24,3.13C26.77,15,21.86,16.08,19.71,13.94Z"></path><path class="cls-3" d="M23,17a1,1,0,0,1-1-1V2a1,1,0,0,1,2,0V16A1,1,0,0,1,23,17Z"></path></g></svg>