<svg xmlns="http://www.w3.org/2000/svg" viewBox="0 0 32 32"><defs><style>.cls-1{fill:#ffe082;}.cls-2{fill:#ffb74d;}.cls-3{fill:#039be5;}</style></defs><title>firenze.dev is colalborative</title><g id="crowdsourcing"><path class="cls-1" d="M16,21c-3.69,0-6.1,5-4.5,9.35a1,1,0,0,0,.94.65h7.12a1,1,0,0,0,.94-.65C22.12,26,19.65,21,16,21Z"></path><path class="cls-2" d="M5.5,21.59c-3.42,0-5.72,4.77-4,8.81a1,1,0,0,0,.92.6H8.56a1,1,0,0,0,.92-.6C11.24,26.32,8.88,21.59,5.5,21.59Z"></path><path class="cls-2" d="M26.43,21.59c-3.42,0-5.73,4.77-4,8.81a1,1,0,0,0,.92.6h6.12a1,1,0,0,0,.92-.6C32.17,26.32,29.81,21.59,26.43,21.59Z"></path><circle class="cls-3" cx="16" cy="18" r="4"></circle><circle class="cls-3" cx="6" cy="19.5" r="3.5"></circle><path class="cls-1" d="M22.5,6.59c-2.52,0-4.57,2.65-4.57,5.91a1,1,0,0,0,1,1,14.22,14.22,0,0,1,6.52,1.37h0a1.16,1.16,0,0,0,1.17-.06C28,13.87,27,6.59,22.5,6.59Z"></path><circle class="cls-2" cx="22" cy="4.5" r="3.5"></circle><path class="cls-1" d="M9.5,6.59c-4.49,0-5.41,7.32-4.12,8.22a1.16,1.16,0,0,0,1.17.06h0a14.22,14.22,0,0,1,6.52-1.37,1,1,0,0,0,1-1C14.07,9.24,12,6.59,9.5,6.59Z"></path><circle class="cls-2" cx="10" cy="4.5" r="3.5"></circle><circle class="cls-3" cx="26.5" cy="19.5" r="3.5"></circle></g></svg>