<svg xmlns="http://www.w3.org/2000/svg" viewBox="0 0 32 32"><defs><style>.cls-1{fill:#039be5;}.cls-2{fill:#ffb74d;}.cls-3{fill:#ffe082;}</style></defs><title>firenze.dev is easy</title><g id="career"><path class="cls-1" d="M30.55,16.17C28.7,14.93,28,9.89,28,7a6,6,0,0,0-6-6C14.14,1,9.68,16.4,18.14,21.8a1,1,0,0,0,1.06,0,5.32,5.32,0,0,1,6.16.41,1,1,0,0,0,1.12.07,5.59,5.59,0,0,0,2.23-2.37A2.85,2.85,0,0,0,31,17,1,1,0,0,0,30.55,16.17Z"></path><path class="cls-2" d="M31,29.77l-.79-3.3c-1.94-8-10.74-10.31-15-3.26a1,1,0,0,0,0,1c1.14,1.87,1.16,3.29,1.89,6A1,1,0,0,0,18,31H30A1,1,0,0,0,31,29.77Z"></path><path class="cls-2" d="M10,1A6,6,0,0,0,4,7c0,6.64,2,10,6,10s6-3.36,6-10A6,6,0,0,0,10,1Z"></path><path class="cls-3" d="M18.18,26.47a11.19,11.19,0,0,0-1.33-3.26A8.16,8.16,0,0,0,10,19a7.55,7.55,0,0,0-5.17,2.13,10.63,10.63,0,0,0-3,5.34L1,29.77A1,1,0,0,0,2,31H19.27Z"></path><path class="cls-3" d="M25.22,13.18c-2.52-1-3.15-4.56-3.36-5.73A1,1,0,0,0,20,7.08a8.19,8.19,0,0,1-2.52,2.58,1,1,0,0,0-.49.91c.26,5.56,2.73,6.73,4.76,6.73a4.14,4.14,0,0,0,4-2.8A1,1,0,0,0,25.22,13.18Z"></path></g></svg>