<svg xmlns="http://www.w3.org/2000/svg" viewBox="0 0 32 32"><defs><style>.cls-1{fill:#ffe082;}.cls-2{fill:#ffb74d;}.cls-3{fill:#039be5;}</style></defs><title>firenze.dev is present</title><g id="ceo_copywriting" data-name="ceo copywriting"><path class="cls-1" d="M26,1H13a1,1,0,0,0-.71.29l-7,7A1,1,0,0,0,5,9V30a1,1,0,0,0,1,1H26a1,1,0,0,0,1-1V2A1,1,0,0,0,26,1Z"></path><path class="cls-2" d="M13.38,1.08a1,1,0,0,0-1.09.21l-7,7a1,1,0,0,0-.21,1.09A1,1,0,0,0,6,10h7a1,1,0,0,0,1-1V2A1,1,0,0,0,13.38,1.08Z"></path><path class="cls-3" d="M19.49,27.86a1,1,0,0,1-.35-1.37l10-17a1,1,0,0,1,1.72,1l-10,17A1,1,0,0,1,19.49,27.86Z"></path><path class="cls-2" d="M23,14H10a1,1,0,0,1,0-2H23a1,1,0,0,1,0,2Z"></path><path class="cls-2" d="M20,18H10a1,1,0,0,1,0-2H20a1,1,0,0,1,0,2Z"></path><path class="cls-2" d="M18,22H10a1,1,0,0,1,0-2h8a1,1,0,0,1,0,2Z"></path><path class="cls-3" d="M16,26H10a1,1,0,0,1,0-2h6a1,1,0,0,1,0,2Z"></path></g></svg>