<?xml version="1.0" encoding="UTF-8"?> <svg xmlns="http://www.w3.org/2000/svg" xmlns:xlink="http://www.w3.org/1999/xlink" width="179px" height="37px" viewBox="0 0 179 37" version="1.1"><title>06F959D6-AAA7-439A-A08D-5FF62E908300</title><desc>Created with sketchtool.</desc><defs><polygon id="path-1" points="0 42 185 42 185 0 0 0"></polygon></defs><g id="Homepage--Events" stroke="none" stroke-width="1" fill="none" fill-rule="evenodd"><g id="Home---events---open-filters" transform="translate(-117.000000, -14.000000)"><g id="Group-6"><g id="Group-4"><g id="Group-2"><g id="CDM_2018_logo_payoff_orange_blue_RGB" transform="translate(114.000000, 10.500000)"><polygon id="Fill-1" fill="#FF5C00" points="33.0265613 32.5169755 34.2315487 32.5169755 34.9905378 34.5028691 35.7495269 32.5169755 36.9639094 32.5169755 35.8159636 35.2465631 36.6698431 37.1647938 38.576778 32.5 40 32.5 37.2579758 38.5 36.1575422 38.5 34.9905378 35.9816497 33.8235334 38.5 32.7229656 38.5 30 32.5 31.4041634 32.5 33.3206276 37.1647938 34.1555827 35.2465631"></polygon><g id="Group-54" transform="translate(0.000000, 0.500000)"><path d="M42.7909531,34.9977677 C42.7612524,34.6417921 42.6322558,34.3566274 42.4039633,34.1424018 C42.1755449,33.9281762 41.8982966,33.8211274 41.5722184,33.8211274 C41.4120109,33.8211274 41.262249,33.8498104 41.1229327,33.9070482 C40.9834905,33.964414 40.8605347,34.0443165 40.7538136,34.1468835 C40.6469667,34.2495787 40.5593748,34.3732738 40.4912898,34.5179689 C40.4230789,34.6627921 40.3830585,34.822853 40.3712286,34.9977677 L42.7909531,34.9977677 Z M41.5810279,37.8581213 C41.2073782,37.8581213 40.8693442,37.7932006 40.5669259,37.6634872 C40.2643816,37.5337738 40.0065143,37.3573226 39.7929463,37.1340055 C39.5793782,36.9106884 39.4148918,36.6512616 39.2991095,36.355597 C39.1834531,36.0599323 39.1256878,35.7490299 39.1256878,35.4231457 C39.1256878,35.085353 39.1820687,34.7668957 39.2947048,34.468286 C39.4073408,34.1695482 39.5705687,33.9070482 39.7840109,33.6806579 C39.9975789,33.4543957 40.2569565,33.2749994 40.5623952,33.1422128 C40.867834,33.0095543 41.2103986,32.943097 41.5899633,32.943097 C41.9695279,32.943097 42.3090721,33.0095543 42.6085959,33.1422128 C42.9079939,33.2749994 43.1630925,33.4531152 43.3736401,33.6761762 C43.5840619,33.8994933 43.7442694,34.1590482 43.8540109,34.4547128 C43.9637524,34.7503774 44.0186231,35.0582067 44.0186231,35.3779445 C44.0186231,35.4564384 44.0171129,35.5317311 44.0142184,35.6042067 C44.011198,35.6766823 44.0037728,35.7369933 43.9919429,35.7852677 L40.3889735,35.7852677 C40.4067184,35.972347 40.4512694,36.1382982 40.5225007,36.2831213 C40.5936061,36.4279445 40.6854769,36.5516396 40.7982388,36.6542067 C40.9108748,36.7569018 41.0383612,36.8352677 41.1808238,36.8895604 C41.3230347,36.943853 41.4712864,36.9709994 41.6255789,36.9709994 C41.862681,36.9709994 42.0865687,36.912225 42.2972422,36.7945482 C42.5076639,36.6768713 42.6516367,36.5215482 42.7286571,36.3283226 L43.7518204,36.6179689 C43.5796571,36.9800909 43.3054293,37.2774201 42.928885,37.5095726 C42.552215,37.7419811 42.1029293,37.8581213 41.5810279,37.8581213 L41.5810279,37.8581213 Z" id="Fill-2" fill="#FF5C00"></path><path d="M46.5895694,35.3960506 C46.5895694,35.0642762 46.6458245,34.7504287 46.7585864,34.454636 C46.8712224,34.1590994 47.0344503,33.8995445 47.2478925,33.6762274 C47.4614605,33.4530384 47.7194537,33.2750506 48.0218721,33.142136 C48.3244163,33.0094774 48.6653449,32.9430201 49.0449095,32.9430201 C49.554981,32.9430201 49.9892905,33.0548067 50.3482156,33.2778677 C50.707015,33.5013128 50.9754537,33.7939043 51.1534061,34.1558982 L49.9879061,34.5180201 C49.8871,34.3431055 49.7535728,34.2089104 49.5875762,34.1153067 C49.4214537,34.021703 49.2375864,33.9749652 49.0359741,33.9749652 C48.8639367,33.9749652 48.7038551,34.0096665 48.5557293,34.0789409 C48.4073517,34.1484713 48.2783551,34.2450201 48.1686136,34.3687152 C48.0588721,34.4924104 47.9729163,34.6417152 47.9107463,34.8167579 C47.8483245,34.9918006 47.8172395,35.1848982 47.8172395,35.3960506 C47.8172395,35.6073311 47.8498347,35.8004287 47.915151,35.9753433 C47.9803415,36.150514 48.0678075,36.3012274 48.177549,36.4279957 C48.2872905,36.554636 48.4162871,36.6527213 48.5645388,36.7221238 C48.7127905,36.7915262 48.8699776,36.8262274 49.0359741,36.8262274 C49.2495422,36.8262274 49.4466238,36.7719348 49.6277224,36.6632213 C49.8085694,36.554636 49.9345456,36.4219774 50.0057769,36.2649896 L51.171151,36.6271116 C51.0110694,36.9891055 50.7470354,37.2847701 50.3794265,37.5141055 C50.011566,37.7435689 49.5698313,37.8581726 49.0538449,37.8581726 C48.6741544,37.8581726 48.3332259,37.7915872 48.0308075,37.6589287 C47.7282633,37.5262701 47.4702701,37.3466177 47.2568279,37.1203555 C47.0432599,36.8940933 46.8786476,36.6315933 46.7629912,36.3328555 C46.6473347,36.0341177 46.5895694,35.7219348 46.5895694,35.3960506" id="Fill-4" fill="#FF5C00"></path><path d="M52.7903415,35.4051165 C52.7903415,35.616397 52.8214265,35.8079579 52.8837224,35.9797994 C52.9460184,36.151897 53.0318483,36.3012018 53.1417156,36.4279701 C53.2514571,36.5546104 53.3803279,36.6528238 53.5287054,36.7220982 C53.6768313,36.7915006 53.8370388,36.8262018 54.0090762,36.8262018 C54.1809878,36.8262018 54.3411952,36.7915006 54.4894469,36.7220982 C54.6376986,36.6528238 54.7666952,36.5546104 54.8764367,36.4279701 C54.9861782,36.3012018 55.072134,36.1504884 55.1344299,35.9753177 C55.1967259,35.800403 55.2279367,35.6073055 55.2279367,35.396025 C55.2279367,35.1910189 55.1967259,35.0008665 55.1344299,34.8258238 C55.072134,34.6507811 54.9861782,34.4999396 54.8764367,34.3731713 C54.7666952,34.2465311 54.6376986,34.1484457 54.4894469,34.0790433 C54.3411952,34.0097689 54.1809878,33.9749396 54.0090762,33.9749396 C53.8370388,33.9749396 53.6768313,34.0111774 53.5287054,34.083525 C53.3803279,34.1560006 53.2514571,34.2554945 53.1417156,34.3822628 C53.0318483,34.508903 52.9460184,34.6598726 52.8837224,34.8347872 C52.8214265,35.0099579 52.7903415,35.1999823 52.7903415,35.4051165 M54.0090762,37.858147 C53.6293857,37.858147 53.2884571,37.7915616 52.9860388,37.6590311 C52.6834946,37.5262445 52.4268857,37.3467201 52.2164639,37.1204579 C52.0059163,36.8940677 51.8441986,36.6331043 51.7316884,36.3374396 C51.6189265,36.041775 51.5626714,35.7308726 51.5626714,35.4051165 C51.5626714,35.0733421 51.6189265,34.7594945 51.7316884,34.4637018 C51.8441986,34.1681652 52.0059163,33.9070738 52.2164639,33.6806835 C52.4268857,33.4544213 52.6834946,33.275025 52.9860388,33.1422384 C53.2884571,33.0095799 53.6293857,32.9429945 54.0090762,32.9429945 C54.3886408,32.9429945 54.728185,33.0095799 55.0277088,33.1422384 C55.3271068,33.275025 55.5822054,33.4544213 55.7927531,33.6806835 C56.0031748,33.9070738 56.1648925,34.1681652 56.2776544,34.4637018 C56.3901646,34.7594945 56.4466714,35.0733421 56.4466714,35.4051165 C56.4466714,35.7308726 56.3901646,36.041775 56.2776544,36.3374396 C56.1648925,36.6331043 56.0048109,36.8940677 55.7972837,37.1204579 C55.5896306,37.3467201 55.3346578,37.5262445 55.0321136,37.6590311 C54.7296952,37.7915616 54.3886408,37.858147 54.0090762,37.858147" id="Fill-6" fill="#FF5C00"></path><path d="M59.4890531,36.8262146 C59.6016891,36.8262146 59.7173456,36.8066232 59.8360224,36.7674402 C59.9545735,36.7281293 60.064315,36.6723 60.1652469,36.5998244 C60.2659272,36.5274768 60.3565395,36.4430927 60.4364544,36.3464159 C60.5166211,36.2499951 60.577281,36.1443549 60.6189374,36.0296232 L60.6189374,34.8981841 C60.571366,34.7655256 60.5046653,34.6433671 60.4187095,34.5315805 C60.3327537,34.419922 60.2348422,34.3233732 60.1251007,34.2419341 C60.0153592,34.1604951 59.8997027,34.0957024 59.7782571,34.0473 C59.6565599,33.9990256 59.5364986,33.9749524 59.4179476,33.9749524 C59.2399952,33.9749524 59.075383,34.0142634 58.9241109,34.0926293 C58.7729646,34.1711232 58.643968,34.278172 58.5372469,34.4139037 C58.4304,34.5497634 58.3473388,34.7052146 58.2880633,34.8801293 C58.2286619,35.055172 58.1990871,35.2362329 58.1990871,35.4231841 C58.1990871,35.6223 58.2316823,35.8064341 58.2969986,35.9753305 C58.3621891,36.1443549 58.4511653,36.2921232 58.5638014,36.4188915 C58.6764374,36.5456598 58.8114748,36.6451537 58.9686619,36.7175012 C59.1257231,36.7899768 59.2991449,36.8262146 59.4890531,36.8262146 M59.1776993,37.8581598 C58.8574102,37.8581598 58.5609068,37.7946476 58.2880633,37.6680073 C58.0152197,37.541239 57.7810122,37.3663244 57.585315,37.1430073 C57.3894918,36.9198183 57.2368354,36.6587268 57.1270939,36.359989 C57.0173524,36.0612512 56.9624816,35.7399768 56.9624816,35.3960378 C56.9624816,35.0520988 57.014332,34.7322329 57.1182844,34.4365683 C57.2218592,34.1409037 57.365832,33.8813488 57.5496993,33.6581598 C57.7334408,33.4349707 57.9529238,33.2598 58.2080224,33.1331598 C58.4629952,33.0063915 58.7417537,32.9430073 59.044298,32.9430073 C59.3881211,32.9430073 59.6980905,33.0275195 59.9739544,33.1964159 C60.2496925,33.3654402 60.464519,33.5856841 60.6189374,33.8572756 L60.6189374,31.159928 L61.8109918,31.159928 L61.8109918,36.3735622 C61.8109918,36.5003305 61.8317571,36.590861 61.8732878,36.6451537 C61.9146925,36.6994463 61.9859238,36.7297939 62.0868558,36.7356841 L62.0868558,37.7676293 C61.8790769,37.8097573 61.7100599,37.8308854 61.5796789,37.8308854 C61.3662367,37.8308854 61.1911789,37.7765927 61.0547571,37.6680073 C60.9183354,37.559422 60.841315,37.417672 60.8235701,37.2425012 L60.7968898,36.9438915 C60.6247265,37.2457024 60.3920293,37.4733732 60.0984204,37.6272878 C59.8049374,37.7812024 59.4979884,37.8581598 59.1776993,37.8581598" id="Fill-8" fill="#FF5C00"></path><path d="M66.3569327,34.9977677 C66.3271061,34.6417921 66.1981095,34.3566274 65.9699429,34.1424018 C65.7415245,33.9281762 65.4642762,33.8211274 65.1380721,33.8211274 C64.9779905,33.8211274 64.8282286,33.8498104 64.6889122,33.9070482 C64.5494701,33.964414 64.4263884,34.0443165 64.3196673,34.1468835 C64.2128204,34.2495787 64.1253544,34.3732738 64.0572694,34.5179689 C63.9889327,34.6627921 63.9489122,34.822853 63.9370823,34.9977677 L66.3569327,34.9977677 Z M65.1470075,37.8581213 C64.7733578,37.8581213 64.4353238,37.7932006 64.1329054,37.6634872 C63.8303612,37.5337738 63.572368,37.3573226 63.3589259,37.1340055 C63.1453578,36.9106884 62.9807456,36.6512616 62.8650891,36.355597 C62.7494327,36.0599323 62.6916673,35.7490299 62.6916673,35.4231457 C62.6916673,35.085353 62.7479224,34.7668957 62.8606844,34.468286 C62.9733204,34.1695482 63.1364224,33.9070482 63.3499905,33.6806579 C63.5634327,33.4543957 63.8228102,33.2749994 64.1283748,33.1422128 C64.4338136,33.0095543 64.7762524,32.943097 65.1559429,32.943097 C65.5353816,32.943097 65.8749259,33.0095543 66.1745755,33.1422128 C66.4739735,33.2749994 66.7290721,33.4531152 66.9396197,33.6761762 C67.1500415,33.8994933 67.310249,34.1590482 67.4199905,34.4547128 C67.529732,34.7503774 67.5846027,35.0582067 67.5846027,35.3779445 C67.5846027,35.4564384 67.5830925,35.5317311 67.580198,35.6042067 C67.5770517,35.6766823 67.5697524,35.7369933 67.5579224,35.7852677 L63.9549531,35.7852677 C63.972698,35.972347 64.017249,36.1382982 64.0883544,36.2831213 C64.1595857,36.4279445 64.2514565,36.5516396 64.3642184,36.6542067 C64.4767286,36.7569018 64.6043408,36.8352677 64.7466776,36.8895604 C64.8890143,36.943853 65.0371401,36.9709994 65.1914327,36.9709994 C65.4286605,36.9709994 65.6525483,36.912225 65.8632218,36.7945482 C66.0736435,36.6768713 66.2174905,36.5215482 66.2946367,36.3283226 L67.3176741,36.6179689 C67.1456367,36.9800909 66.871283,37.2774201 66.4948646,37.5095726 C66.1180687,37.7419811 65.668783,37.8581213 65.1470075,37.8581213 L65.1470075,37.8581213 Z" id="Fill-10" fill="#FF5C00"></path><path d="M73.2425068,37.5231713 C73.0824252,37.5955189 72.886602,37.6679945 72.6552891,37.7404701 C72.424102,37.8128177 72.1808333,37.8490555 71.9258605,37.8490555 C71.7597381,37.8490555 71.6040612,37.8277994 71.4588299,37.7856713 C71.3133469,37.7435433 71.1859864,37.6756774 71.0762449,37.5819457 C70.9665034,37.4884701 70.8790374,37.3678482 70.8138469,37.2199518 C70.7485306,37.0721835 70.7159354,36.8926591 70.7159354,36.6813787 L70.7159354,33.9567567 L70.1021633,33.9567567 L70.1021633,33.0245616 L70.7159354,33.0245616 L70.7159354,31.4856713 L71.9079898,31.4856713 L71.9079898,33.0245616 L72.886602,33.0245616 L72.886602,33.9567567 L71.9079898,33.9567567 L71.9079898,36.2740555 C71.9079898,36.4430799 71.9510306,36.5622933 72.0369864,36.6315677 C72.1229422,36.7010982 72.2282789,36.7356713 72.3528707,36.7356713 C72.4774626,36.7356713 72.5989082,36.7146713 72.7177109,36.6722872 C72.8361361,36.6301591 72.9311531,36.5939213 73.0022585,36.5637018 L73.2425068,37.5231713 Z" id="Fill-12" fill="#FF5C00"></path><path d="M78.1976122,37.767578 L77.005432,37.767578 L77.005432,35.1063402 C77.005432,34.7323098 76.9372211,34.4562366 76.8009252,34.2781207 C76.6643776,34.100261 76.4717007,34.011139 76.2226429,34.011139 C76.1157959,34.011139 76.0031599,34.0353402 75.8846088,34.0834866 C75.7658061,34.131889 75.6532959,34.1997549 75.5465748,34.2872122 C75.4397279,34.3746695 75.3419422,34.4787732 75.252966,34.5995232 C75.1639898,34.7202732 75.0986735,34.8529317 75.0572687,34.9977549 L75.0572687,37.767578 L73.8650884,37.767578 L73.8650884,31.1598768 L75.0572687,31.1598768 L75.0572687,33.9024256 C75.2291803,33.5947244 75.4620034,33.3579622 75.7556122,33.192011 C76.0490952,33.0260598 76.373915,32.9430841 76.7296939,32.9430841 C77.0322381,32.9430841 77.2782755,32.9959683 77.4681837,33.1014805 C77.6578401,33.2071207 77.8062177,33.3473341 77.9129388,33.5223768 C78.0196599,33.6974195 78.0937857,33.8965354 78.1353163,34.1197244 C78.1767211,34.3430415 78.1976122,34.5723768 78.1976122,34.8077305 L78.1976122,37.767578 Z" id="Fill-14" fill="#FF5C00"></path><path d="M82.610051,34.9977677 C82.5803503,34.6417921 82.4513537,34.3566274 82.2230612,34.1424018 C81.9946429,33.9281762 81.7173946,33.8211274 81.3911905,33.8211274 C81.2311088,33.8211274 81.0813469,33.8498104 80.9420306,33.9070482 C80.8025884,33.964414 80.6796327,34.0443165 80.5727857,34.1468835 C80.4660646,34.2495787 80.3784728,34.3732738 80.3103878,34.5179689 C80.2421769,34.6627921 80.2021565,34.822853 80.1902007,34.9977677 L82.610051,34.9977677 Z M81.4001259,37.8581213 C81.0264762,37.8581213 80.6884422,37.7932006 80.3860238,37.6634872 C80.0834796,37.5337738 79.8254864,37.3573226 79.6120442,37.1340055 C79.3984762,36.9106884 79.2338639,36.6512616 79.1182075,36.355597 C79.002551,36.0599323 78.9447857,35.7490299 78.9447857,35.4231457 C78.9447857,35.085353 79.0010408,34.7668957 79.1138027,34.468286 C79.2264388,34.1695482 79.3896667,33.9070482 79.6031088,33.6806579 C79.8166769,33.4543957 80.0760544,33.2749994 80.3814932,33.1422128 C80.686932,33.0095543 81.0293707,32.943097 81.4090612,32.943097 C81.7885,32.943097 82.1280442,33.0095543 82.4276939,33.1422128 C82.7270918,33.2749994 82.9821905,33.4531152 83.1927381,33.6761762 C83.4031599,33.8994933 83.5633673,34.1590482 83.6731088,34.4547128 C83.7828503,34.7503774 83.8377211,35.0582067 83.8377211,35.3779445 C83.8377211,35.4564384 83.8362109,35.5317311 83.8333163,35.6042067 C83.8301701,35.6766823 83.8228707,35.7369933 83.8110408,35.7852677 L80.2080714,35.7852677 C80.2258163,35.972347 80.2703673,36.1382982 80.3414728,36.2831213 C80.4127041,36.4279445 80.5045748,36.5516396 80.6173367,36.6542067 C80.7299728,36.7569018 80.8574592,36.8352677 80.9997959,36.8895604 C81.1421327,36.943853 81.2903844,36.9709994 81.4446769,36.9709994 C81.6817789,36.9709994 81.9056667,36.912225 82.1163401,36.7945482 C82.3267619,36.6768713 82.4706088,36.5215482 82.5477551,36.3283226 L83.5707925,36.6179689 C83.3987551,36.9800909 83.1245272,37.2774201 82.747983,37.5095726 C82.3713129,37.7419811 81.9220272,37.8581213 81.4001259,37.8581213 L81.4001259,37.8581213 Z" id="Fill-16" fill="#FF5C00"></path><path d="M86.9869245,37.767578 L86.9869245,34.2011634 L86.3731524,34.2011634 L86.3731524,33.2779317 L86.9869245,33.2779317 L86.9869245,32.9882854 C86.9869245,32.3969561 87.1262408,31.9291939 87.4049993,31.5852549 C87.6837578,31.2413159 88.0633224,31.0693463 88.543819,31.0693463 C88.9232578,31.0693463 89.3058429,31.16295 89.6913224,31.3499012 L89.4512,32.2641695 C89.3622238,32.2158951 89.2568871,32.1751756 89.1353156,32.1418829 C89.0137442,32.1088463 88.9024925,32.0922 88.8016864,32.0922 C88.3865061,32.0922 88.1789789,32.3759561 88.1789789,32.9430841 L88.1789789,33.2779317 L89.3177986,33.2779317 L89.3177986,34.2011634 L88.1789789,34.2011634 L88.1789789,37.767578 L86.9869245,37.767578 Z" id="Fill-18" fill="#FF5C00"></path><path d="M91.4172466,37.8581085 C90.9368759,37.8581085 90.5720357,37.7012488 90.3229779,37.3874012 C90.0739201,37.0736817 89.9493282,36.6089927 89.9493282,35.9934622 L89.9493282,33.0245232 L91.1415085,33.0245232 L91.1415085,35.7309622 C91.1415085,36.4610963 91.3993759,36.8261634 91.9153622,36.8261634 C92.1466752,36.8261634 92.3705629,36.7553524 92.5870255,36.6134744 C92.8034881,36.4717244 92.9799303,36.2559622 93.116352,35.9663159 L93.116352,33.0245232 L94.3085323,33.0245232 L94.3085323,36.373639 C94.3085323,36.5002793 94.330682,36.5909378 94.375233,36.6451024 C94.4196582,36.6995232 94.4922738,36.7297427 94.5932058,36.7356329 L94.5932058,37.767578 C94.4744031,37.7915232 94.375233,37.806761 94.2951922,37.8127793 C94.2150255,37.8187976 94.1424099,37.8218707 94.0772194,37.8218707 C93.8636514,37.8218707 93.6902296,37.7720598 93.5567024,37.6725659 C93.423301,37.5729439 93.3446446,37.4358037 93.3209847,37.2606329 L93.2943044,36.8804561 C93.0866514,37.2063402 92.8198486,37.4507854 92.4936446,37.6136634 C92.1674405,37.7766695 91.8086412,37.8581085 91.4172466,37.8581085" id="Fill-20" fill="#FF5C00"></path><path d="M98.2850633,37.5231713 C98.1249816,37.5955189 97.9292844,37.6679945 97.6978456,37.7404701 C97.4666585,37.8128177 97.2233898,37.8490555 96.968417,37.8490555 C96.8022946,37.8490555 96.6466177,37.8277994 96.5013864,37.7856713 C96.3560293,37.7435433 96.2285429,37.6756774 96.1188014,37.5819457 C96.0090599,37.4884701 95.9215939,37.3678482 95.8564034,37.2199518 C95.7910871,37.0721835 95.7584918,36.8926591 95.7584918,36.6813787 L95.7584918,33.9567567 L95.1447197,33.9567567 L95.1447197,33.0245616 L95.7584918,33.0245616 L95.7584918,31.4856713 L96.9506721,31.4856713 L96.9506721,33.0245616 L97.9292844,33.0245616 L97.9292844,33.9567567 L96.9506721,33.9567567 L96.9506721,36.2740555 C96.9506721,36.4430799 96.9935871,36.5622933 97.0796687,36.6315677 C97.1654986,36.7010982 97.2709612,36.7356713 97.3954272,36.7356713 C97.520019,36.7356713 97.6414646,36.7146713 97.7602673,36.6722872 C97.8788184,36.6301591 97.9737095,36.5939213 98.0449408,36.5637018 L98.2850633,37.5231713 Z" id="Fill-22" fill="#FF5C00"></path><path d="M100.331113,37.8581085 C99.8507422,37.8581085 99.4860279,37.7012488 99.2368442,37.3874012 C98.9877864,37.0736817 98.8631946,36.6089927 98.8631946,35.9934622 L98.8631946,33.0245232 L100.055375,33.0245232 L100.055375,35.7309622 C100.055375,36.4610963 100.313242,36.8261634 100.829229,36.8261634 C101.060541,36.8261634 101.284429,36.7553524 101.500892,36.6134744 C101.717354,36.4717244 101.893797,36.2559622 102.030218,35.9663159 L102.030218,33.0245232 L103.222399,33.0245232 L103.222399,36.373639 C103.222399,36.5002793 103.244674,36.5909378 103.289099,36.6451024 C103.333524,36.6995232 103.40614,36.7297427 103.507072,36.7356329 L103.507072,37.767578 C103.388395,37.7915232 103.289099,37.806761 103.209059,37.8127793 C103.129018,37.8187976 103.056276,37.8218707 102.991086,37.8218707 C102.777518,37.8218707 102.604096,37.7720598 102.470569,37.6725659 C102.337167,37.5729439 102.258511,37.4358037 102.234851,37.2606329 L102.208297,36.8804561 C102.000518,37.2063402 101.733715,37.4507854 101.407511,37.6136634 C101.081307,37.7766695 100.722507,37.8581085 100.331113,37.8581085" id="Fill-24" fill="#FF5C00"></path><path d="M107.181172,34.0744848 C106.819352,34.080503 106.496169,34.1514421 106.211495,34.2871738 C105.926822,34.4230335 105.722189,34.6266311 105.597597,34.8982226 L105.597597,37.7675396 L104.405543,37.7675396 L104.405543,33.0244848 L105.499812,33.0244848 L105.499812,34.038247 C105.582747,33.8753689 105.680659,33.7291372 105.79342,33.5992957 C105.905931,33.4695823 106.027628,33.3565152 106.158135,33.2598384 C106.288516,33.1634177 106.420533,33.0894055 106.55406,33.0380579 C106.687461,32.9868384 106.816458,32.9611006 106.94105,32.9611006 L107.087791,32.9611006 C107.120386,32.9611006 107.151471,32.9643018 107.181172,32.9701921 L107.181172,34.0744848 Z" id="Fill-26" fill="#FF5C00"></path><path d="M110.988812,34.9977677 C110.959111,34.6417921 110.830115,34.3566274 110.601822,34.1424018 C110.373404,33.9281762 110.096155,33.8211274 109.770077,33.8211274 C109.60987,33.8211274 109.460108,33.8498104 109.320791,33.9070482 C109.181349,33.964414 109.058394,34.0443165 108.951672,34.1468835 C108.844826,34.2495787 108.757234,34.3732738 108.689149,34.5179689 C108.620938,34.6627921 108.580917,34.822853 108.569087,34.9977677 L110.988812,34.9977677 Z M109.778887,37.8581213 C109.405237,37.8581213 109.067203,37.7932006 108.764785,37.6634872 C108.46224,37.5337738 108.204373,37.3573226 107.990805,37.1340055 C107.777237,36.9106884 107.612751,36.6512616 107.497094,36.355597 C107.381312,36.0599323 107.323547,35.7490299 107.323547,35.4231457 C107.323547,35.085353 107.379928,34.7668957 107.492564,34.468286 C107.6052,34.1695482 107.768428,33.9070482 107.98187,33.6806579 C108.195438,33.4543957 108.454815,33.2749994 108.760254,33.1422128 C109.065693,33.0095543 109.408257,32.943097 109.787822,32.943097 C110.167387,32.943097 110.506931,33.0095543 110.806455,33.1422128 C111.105853,33.2749994 111.360951,33.4531152 111.571499,33.6761762 C111.782047,33.8994933 111.942128,34.1590482 112.051996,34.4547128 C112.161611,34.7503774 112.216482,35.0582067 112.216482,35.3779445 C112.216482,35.4564384 112.214972,35.5317311 112.212077,35.6042067 C112.209057,35.6766823 112.201632,35.7369933 112.189802,35.7852677 L108.586832,35.7852677 C108.604703,35.972347 108.649128,36.1382982 108.72036,36.2831213 C108.791465,36.4279445 108.883336,36.5516396 108.996098,36.6542067 C109.108734,36.7569018 109.23622,36.8352677 109.378683,36.8895604 C109.520894,36.943853 109.669145,36.9709994 109.823438,36.9709994 C110.06054,36.9709994 110.284428,36.912225 110.495101,36.7945482 C110.705523,36.6768713 110.849496,36.5215482 110.926516,36.3283226 L111.949679,36.6179689 C111.777516,36.9800909 111.503288,37.2774201 111.126744,37.5095726 C110.750074,37.7419811 110.300788,37.8581213 109.778887,37.8581213 L109.778887,37.8581213 Z" id="Fill-28" fill="#FF5C00"></path><mask id="mask-2" fill="white"><use xlink:href="#path-1"></use></mask><g id="Clip-31"></g><polygon id="Fill-30" fill="#FF5C00" mask="url(#mask-2)" points="112.919344 37.7676037 113.897956 37.7676037 113.897956 36.4641951 112.919344 36.4641951"></polygon><polygon id="Fill-32" fill="#FF5C00" mask="url(#mask-2)" points="121.673065 32.4361006 119.653545 32.4361006 119.653545 37.7675396 118.434936 37.7675396 118.434936 32.4361006 116.415416 32.4361006 116.415416 31.3408994 121.673065 31.3408994"></polygon><path d="M122.26017,35.4051165 C122.26017,35.616397 122.291255,35.8079579 122.353551,35.9797994 C122.415847,36.151897 122.501802,36.3012018 122.611544,36.4279701 C122.72116,36.5546104 122.850156,36.6528238 122.998534,36.7220982 C123.146785,36.7915006 123.306867,36.8262018 123.47903,36.8262018 C123.650942,36.8262018 123.811023,36.7915006 123.959401,36.7220982 C124.107527,36.6528238 124.236523,36.5546104 124.346265,36.4279701 C124.456006,36.3012018 124.542088,36.1504884 124.604258,35.9753177 C124.666554,35.800403 124.697765,35.6073055 124.697765,35.396025 C124.697765,35.1910189 124.666554,35.0008665 124.604258,34.8258238 C124.542088,34.6507811 124.456006,34.4999396 124.346265,34.3731713 C124.236523,34.2465311 124.107527,34.1484457 123.959401,34.0790433 C123.811023,34.0097689 123.650942,33.9749396 123.47903,33.9749396 C123.306867,33.9749396 123.146785,34.0111774 122.998534,34.083525 C122.850156,34.1560006 122.72116,34.2554945 122.611544,34.3822628 C122.501802,34.508903 122.415847,34.6598726 122.353551,34.8347872 C122.291255,35.0099579 122.26017,35.1999823 122.26017,35.4051165 M123.47903,37.858147 C123.09934,37.858147 122.758285,37.7915616 122.455867,37.6590311 C122.153323,37.5262445 121.896714,37.3467201 121.686292,37.1204579 C121.475745,36.8940677 121.314027,36.6331043 121.201517,36.3374396 C121.088755,36.041775 121.0325,35.7308726 121.0325,35.4051165 C121.0325,35.0733421 121.088755,34.7594945 121.201517,34.4637018 C121.314027,34.1681652 121.475745,33.9070738 121.686292,33.6806835 C121.896714,33.4544213 122.153323,33.275025 122.455867,33.1422384 C122.758285,33.0095799 123.09934,32.9429945 123.47903,32.9429945 C123.858343,32.9429945 124.198013,33.0095799 124.497537,33.1422384 C124.796935,33.275025 125.05216,33.4544213 125.262581,33.6806835 C125.473003,33.9070738 125.634721,34.1681652 125.747483,34.4637018 C125.859993,34.7594945 125.9165,35.0733421 125.9165,35.4051165 C125.9165,35.7308726 125.859993,36.041775 125.747483,36.3374396 C125.634721,36.6331043 125.474639,36.8940677 125.267112,37.1204579 C125.059459,37.3467201 124.804486,37.5262445 124.501942,37.6590311 C124.199523,37.7915616 123.858343,37.858147 123.47903,37.858147" id="Fill-33" fill="#FF5C00" mask="url(#mask-2)"></path><path d="M128.941174,36.8262146 C129.071555,36.8262146 129.196021,36.8050866 129.314824,36.7628305 C129.433375,36.7207024 129.54299,36.6633366 129.643922,36.590861 C129.744729,36.5183854 129.833705,36.4340012 129.910851,36.3374524 C129.987746,36.2409037 130.047147,36.1382085 130.088678,36.0296232 L130.088678,34.8981841 C129.982082,34.6207024 129.814324,34.3973854 129.586157,34.228361 C129.357739,34.0594646 129.119001,33.9749524 128.870069,33.9749524 C128.686076,33.9749524 128.519953,34.015672 128.371827,34.097111 C128.22345,34.17855 128.095963,34.2871354 127.989242,34.4229951 C127.882521,34.5587268 127.800844,34.714178 127.744589,34.8892207 C127.688082,35.0642634 127.660018,35.2451963 127.660018,35.4322756 C127.660018,35.6255012 127.692613,35.8064341 127.757929,35.9753305 C127.82312,36.1443549 127.913606,36.2921232 128.029263,36.4188915 C128.144919,36.5456598 128.279705,36.6451537 128.434123,36.7175012 C128.588164,36.7899768 128.757181,36.8262146 128.941174,36.8262146 M128.540718,37.7946476 C128.226344,37.7946476 127.941797,37.7313915 127.686698,37.6046232 C127.431725,37.4778549 127.210732,37.3044768 127.02397,37.0842329 C126.837082,36.863989 126.693361,36.6089159 126.592555,36.3192695 C126.491623,36.0296232 126.441283,35.721922 126.441283,35.3960378 C126.441283,35.0520988 126.494769,34.7322329 126.601365,34.4365683 C126.708212,34.1409037 126.856337,33.8813488 127.04612,33.6581598 C127.235902,33.4349707 127.464446,33.2598 127.731249,33.1331598 C127.998178,33.0063915 128.291661,32.9430073 128.61195,32.9430073 C128.973644,32.9430073 129.290912,33.0259829 129.563882,33.1919341 C129.836599,33.3580134 130.061997,33.5796659 130.23995,33.8572756 L130.23995,33.0245744 L131.280858,33.0245744 L131.280858,37.541239 C131.280858,37.8911963 131.215416,38.2050439 131.085161,38.4826537 C130.954654,38.7601354 130.775065,38.995489 130.546899,39.1887146 C130.31848,39.3818122 130.045637,39.5295805 129.728494,39.6322756 C129.411099,39.7347146 129.06564,39.7860622 128.692116,39.7860622 C128.181919,39.7860622 127.753399,39.7001415 127.406555,39.528172 C127.059586,39.3560744 126.761572,39.1131659 126.512388,38.7994463 L127.161776,38.1567695 C127.339729,38.3799585 127.563616,38.5550012 127.833439,38.6817695 C128.103388,38.8085378 128.389572,38.871922 128.692116,38.871922 C128.875732,38.871922 129.0523,38.8460561 129.221443,38.7949646 C129.390334,38.7436171 129.540096,38.6637146 129.670603,38.5550012 C129.800984,38.4464159 129.9033,38.3074829 129.977552,38.1387146 C130.051552,37.9696902 130.088678,37.7705744 130.088678,37.541239 L130.088678,36.9438915 C129.934511,37.2154829 129.718048,37.4250988 129.43929,37.5729951 C129.160405,37.7208915 128.861007,37.7946476 128.540718,37.7946476" id="Fill-34" fill="#FF5C00" mask="url(#mask-2)"></path><path d="M135.728849,34.9977677 C135.699149,34.6417921 135.570026,34.3566274 135.34186,34.1424018 C135.113441,33.9281762 134.836067,33.8211274 134.509989,33.8211274 C134.349907,33.8211274 134.200145,33.8498104 134.060703,33.9070482 C133.921387,33.964414 133.798305,34.0443165 133.691584,34.1468835 C133.584863,34.2495787 133.497271,34.3732738 133.429186,34.5179689 C133.360975,34.6627921 133.320829,34.822853 133.308999,34.9977677 L135.728849,34.9977677 Z M134.518924,37.8581213 C134.145274,37.8581213 133.807115,37.7932006 133.504696,37.6634872 C133.202278,37.5337738 132.944285,37.3573226 132.730843,37.1340055 C132.517149,36.9106884 132.352662,36.6512616 132.237006,36.355597 C132.121349,36.0599323 132.063584,35.7490299 132.063584,35.4231457 C132.063584,35.085353 132.119839,34.7668957 132.232601,34.468286 C132.345111,34.1695482 132.508339,33.9070482 132.721781,33.6806579 C132.935475,33.4543957 133.194727,33.2749994 133.500291,33.1422128 C133.80573,33.0095543 134.148169,32.943097 134.52786,32.943097 C134.907298,32.943097 135.246843,33.0095543 135.546492,33.1422128 C135.84589,33.2749994 136.100989,33.4531152 136.311536,33.6761762 C136.521958,33.8994933 136.68204,34.1590482 136.791907,34.4547128 C136.901523,34.7503774 136.956519,35.0582067 136.956519,35.3779445 C136.956519,35.4564384 136.954883,35.5317311 136.952115,35.6042067 C136.948968,35.6766823 136.941669,35.7369933 136.929839,35.7852677 L133.32687,35.7852677 C133.344615,35.972347 133.38904,36.1382982 133.460271,36.2831213 C133.531502,36.4279445 133.623373,36.5516396 133.736009,36.6542067 C133.848771,36.7569018 133.976257,36.8352677 134.118594,36.8895604 C134.260931,36.943853 134.409183,36.9709994 134.563349,36.9709994 C134.800577,36.9709994 135.024465,36.912225 135.235013,36.7945482 C135.44556,36.6768713 135.589407,36.5215482 135.666553,36.3283226 L136.689591,36.6179689 C136.517553,36.9800909 136.243326,37.2774201 135.866781,37.5095726 C135.490111,37.7419811 135.0407,37.8581213 134.518924,37.8581213 L134.518924,37.8581213 Z" id="Fill-35" fill="#FF5C00" mask="url(#mask-2)"></path><path d="M140.44382,37.5231713 C140.283738,37.5955189 140.088041,37.6679945 139.856728,37.7404701 C139.625415,37.8128177 139.382146,37.8490555 139.127173,37.8490555 C138.961177,37.8490555 138.805374,37.8277994 138.660143,37.7856713 C138.514786,37.7435433 138.387299,37.6756774 138.277558,37.5819457 C138.167816,37.4884701 138.080476,37.3678482 138.01516,37.2199518 C137.949844,37.0721835 137.917374,36.8926591 137.917374,36.6813787 L137.917374,33.9567567 L137.303476,33.9567567 L137.303476,33.0245616 L137.917374,33.0245616 L137.917374,31.4856713 L139.109429,31.4856713 L139.109429,33.0245616 L140.088041,33.0245616 L140.088041,33.9567567 L139.109429,33.9567567 L139.109429,36.2740555 C139.109429,36.4430799 139.152344,36.5622933 139.238425,36.6315677 C139.324255,36.7010982 139.429592,36.7356713 139.55431,36.7356713 C139.678776,36.7356713 139.800347,36.7146713 139.919024,36.6722872 C140.037449,36.6301591 140.132466,36.5939213 140.203697,36.5637018 L140.44382,37.5231713 Z" id="Fill-36" fill="#FF5C00" mask="url(#mask-2)"></path><path d="M145.398925,37.767578 L144.206871,37.767578 L144.206871,35.1063402 C144.206871,34.7323098 144.138534,34.4562366 144.002238,34.2781207 C143.86569,34.100261 143.673014,34.011139 143.424082,34.011139 C143.317235,34.011139 143.204473,34.0353402 143.085922,34.0834866 C142.967245,34.131889 142.854609,34.1997549 142.747888,34.2872122 C142.641167,34.3746695 142.543255,34.4787732 142.454405,34.5995232 C142.365429,34.7202732 142.299986,34.8529317 142.258582,34.9977549 L142.258582,37.767578 L141.066401,37.767578 L141.066401,31.1598768 L142.258582,31.1598768 L142.258582,33.9024256 C142.430493,33.5947244 142.663442,33.3579622 142.956925,33.192011 C143.250534,33.0260598 143.575228,32.9430841 143.931133,32.9430841 C144.233551,32.9430841 144.479588,32.9959683 144.669497,33.1014805 C144.859279,33.2071207 145.007531,33.3473341 145.114252,33.5223768 C145.221099,33.6974195 145.295099,33.8965354 145.336755,34.1197244 C145.37816,34.3430415 145.398925,34.5723768 145.398925,34.8077305 L145.398925,37.767578 Z" id="Fill-37" fill="#FF5C00" mask="url(#mask-2)"></path><path d="M149.811439,34.9977677 C149.781739,34.6417921 149.652616,34.3566274 149.42445,34.1424018 C149.196031,33.9281762 148.918657,33.8211274 148.592579,33.8211274 C148.432497,33.8211274 148.282735,33.8498104 148.143293,33.9070482 C148.003977,33.964414 147.880895,34.0443165 147.7743,34.1468835 C147.667453,34.2495787 147.579861,34.3732738 147.511776,34.5179689 C147.443565,34.6627921 147.403419,34.822853 147.391589,34.9977677 L149.811439,34.9977677 Z M148.601514,37.8581213 C148.227865,37.8581213 147.889705,37.7932006 147.587286,37.6634872 C147.284868,37.5337738 147.026875,37.3573226 146.813433,37.1340055 C146.599865,36.9106884 146.435252,36.6512616 146.319596,36.355597 C146.203939,36.0599323 146.146174,35.7490299 146.146174,35.4231457 C146.146174,35.085353 146.202429,34.7668957 146.315191,34.468286 C146.427701,34.1695482 146.590929,33.9070482 146.804371,33.6806579 C147.018065,33.4543957 147.277317,33.2749994 147.582882,33.1422128 C147.88832,33.0095543 148.230759,32.943097 148.61045,32.943097 C148.989888,32.943097 149.329559,33.0095543 149.629082,33.1422128 C149.92848,33.2749994 150.183579,33.4531152 150.394127,33.6761762 C150.604548,33.8994933 150.76463,34.1590482 150.874497,34.4547128 C150.984113,34.7503774 151.03911,35.0582067 151.03911,35.3779445 C151.03911,35.4564384 151.037599,35.5317311 151.034705,35.6042067 C151.031559,35.6766823 151.024259,35.7369933 151.012429,35.7852677 L147.40946,35.7852677 C147.427205,35.972347 147.47163,36.1382982 147.542861,36.2831213 C147.614093,36.4279445 147.705963,36.5516396 147.818599,36.6542067 C147.931361,36.7569018 148.058848,36.8352677 148.201184,36.8895604 C148.343521,36.943853 148.491773,36.9709994 148.645939,36.9709994 C148.883167,36.9709994 149.107055,36.912225 149.317603,36.7945482 C149.52815,36.6768713 149.671997,36.5215482 149.749144,36.3283226 L150.772307,36.6179689 C150.600144,36.9800909 150.325916,37.2774201 149.949371,37.5095726 C149.572701,37.7419811 149.12329,37.8581213 148.601514,37.8581213 L148.601514,37.8581213 Z" id="Fill-38" fill="#FF5C00" mask="url(#mask-2)"></path><path d="M154.544218,34.0744848 C154.182398,34.080503 153.859214,34.1514421 153.574541,34.2871738 C153.289867,34.4230335 153.085235,34.6266311 152.960643,34.8982226 L152.960643,37.7675396 L151.768588,37.7675396 L151.768588,33.0244848 L152.862857,33.0244848 L152.862857,34.038247 C152.945793,33.8753689 153.043704,33.7291372 153.156466,33.5992957 C153.268976,33.4695823 153.390673,33.3565152 153.52118,33.2598384 C153.651561,33.1634177 153.783578,33.0894055 153.917105,33.0380579 C154.050507,32.9868384 154.179503,32.9611006 154.304095,32.9611006 L154.450837,32.9611006 C154.483432,32.9611006 154.514517,32.9643018 154.544218,32.9701921 L154.544218,34.0744848 Z" id="Fill-39" fill="#FF5C00" mask="url(#mask-2)"></path><path d="M68.704268,24.0508518 C71.3468735,24.048547 73.9894789,24.0462421 76.6320844,24.0439372 C76.6261694,24.0508518 76.618115,21.1016323 76.618115,21.100736 L70.2870878,21.100736 C69.7593973,22.0841506 69.2318327,23.0674372 68.704268,24.0508518" id="Fill-40" fill="#0E1E30" mask="url(#mask-2)"></path><path d="M67.6690735,19.8664994 L67.6690735,18.0510238 L70.1610361,18.0510238 L71.7576993,15.0297128 L67.6690735,15.0297128 L67.6690735,13.1955421 C67.6690735,12.5453104 68.1861925,12.0190299 68.8279034,12.0190299 L73.3654374,12.0190299 L74.960968,9.07531646 L68.8279034,9.07531646 C66.5834884,9.07531646 64.7611755,10.9171701 64.7611755,13.1955421 L64.7611755,19.8664994 C64.7611755,21.5124384 65.7224204,22.9222555 67.0982163,23.579914 L68.5057265,20.9884628 C68.0227129,20.844664 67.6690735,20.3975177 67.6690735,19.8664994" id="Fill-41" fill="#0E1E30" mask="url(#mask-2)"></path><path d="M76.6794167,9.26633963 L75.1841888,12.0191323 L75.5034711,12.0191323 C76.147699,12.0191323 76.6697262,12.5452848 76.6697262,13.1956445 L76.6697262,15.0296872 L73.5365561,15.0296872 L71.9257976,18.0509982 L79.5776241,18.0509982 L79.5776241,17.3608152 L79.5776241,15.4819555 L79.5776241,13.1956445 C79.5776241,11.3339433 78.3529745,9.77546159 76.6794167,9.26633963" id="Fill-42" fill="#0E1E30" mask="url(#mask-2)"></path><path d="M177.027796,8.13265976 C177.027796,7.39176951 176.401817,6.76023293 175.671004,6.76023293 L174.661936,6.76023293 L174.661936,3.87324512 L175.671004,3.87324512 C178.000368,3.87324512 179.879565,5.7755378 179.879565,8.13265976 L179.879565,13.8666841 C180.299653,14.1126659 180.993844,14.5727451 181.514235,14.8909463 L181.514235,18.2690012 L179.879565,19.1467756 L179.879565,24.9179341 C179.879565,27.3098854 178.000368,29.21205 175.671004,29.21205 L174.661936,29.21205 L174.661936,26.2878 L175.671004,26.2878 C176.401817,26.2878 177.027796,25.6563915 177.027796,24.9179341 L177.027796,18.8979768 L179.950545,16.5395744 L177.027796,14.1126659 L177.027796,8.13265976 Z" id="Fill-43" fill="#FF5C00" mask="url(#mask-2)"></path><path d="M8.02743946,24.9526354 C8.02743946,25.6935256 8.6530415,26.3274951 9.38372857,26.3274951 L10.3931741,26.3274951 L10.3931741,29.2143549 L9.38372857,29.2143549 C7.05738503,29.2143549 5.17541905,27.3148793 5.17541905,24.9526354 L5.17541905,19.218739 C4.75759592,18.9749341 4.06353129,18.5102451 3.54301429,18.1967817 L3.54301429,14.8214159 L5.17541905,13.9412085 L5.17541905,8.1703061 C5.17541905,5.77809878 7.05738503,3.87593415 9.38372857,3.87593415 L10.3931741,3.87593415 L10.3931741,6.79992805 L9.38372857,6.79992805 C8.6530415,6.79992805 8.02743946,7.43146463 8.02743946,8.1703061 L8.02743946,14.1874463 L5.10720816,16.5471293 L8.02743946,18.9749341 L8.02743946,24.9526354 Z" id="Fill-44" fill="#FF5C00" mask="url(#mask-2)"></path><path d="M40.8906633,19.8705073 C40.8906633,19.932611 40.8417075,19.979989 40.7831871,19.979989 L34.1847279,19.979989 C34.1238163,19.979989 34.0747347,19.932611 34.0747347,19.8705073 L34.0747347,13.1907146 C34.0747347,13.1334768 34.1238163,13.0812329 34.1847279,13.0812329 L40.7831871,13.0812329 C40.8417075,13.0812329 40.8906633,13.1334768 40.8906633,13.1907146 L40.8906633,19.8705073 Z M40.7831871,9.06562317 L34.1847279,9.06562317 C31.9267211,9.06562317 30.1011361,10.9129829 30.1011361,13.1907146 L30.1011361,19.8705073 C30.1011361,22.150928 31.9267211,24.0008488 34.1847279,24.0008488 L40.7831871,24.0008488 C43.0337687,24.0008488 44.8618707,22.150928 44.8618707,19.8705073 L44.8618707,13.1907146 C44.8618707,10.9129829 43.0337687,9.06562317 40.7831871,9.06562317 L40.7831871,9.06562317 Z" id="Fill-45" fill="#0E1E30" mask="url(#mask-2)"></path><path d="M23.6434531,19.8826976 C23.6434531,19.9422402 23.5994054,19.9897463 23.5407592,19.9897463 L16.9400347,19.9897463 C16.8813884,19.9897463 16.8349497,19.9422402 16.8349497,19.8826976 L16.8349497,13.2003439 C16.8349497,13.142978 16.8813884,13.0958561 16.9400347,13.0958561 L23.5407592,13.0958561 C23.5994054,13.0958561 23.6434531,13.142978 23.6434531,13.2003439 L23.6434531,14.2886305 L27.619317,14.2886305 L27.619317,13.2003439 C27.619317,10.9226122 25.7938578,9.07525244 23.5407592,9.07525244 L16.9400347,9.07525244 C14.6892014,9.07525244 12.8589599,10.9226122 12.8589599,13.2003439 L12.8589599,19.8826976 C12.8589599,22.1627341 14.6892014,24.010478 16.9400347,24.010478 L23.5407592,24.010478 C25.7938578,24.010478 27.619317,22.1627341 27.619317,19.8826976 L27.619317,18.8316732 L23.6434531,18.8316732 L23.6434531,19.8826976 Z" id="Fill-46" fill="#0E1E30" mask="url(#mask-2)"></path><path d="M58.2327017,19.8826976 C58.2327017,19.9422402 58.1887799,19.9897463 58.1278684,19.9897463 L51.524501,19.9897463 C51.4683718,19.9897463 51.4291065,19.9473622 51.4218071,19.8925573 L51.4218071,13.192789 C51.4291065,13.1381122 51.4683718,13.0958561 51.524501,13.0958561 L58.1278684,13.0958561 C58.1887799,13.0958561 58.2327017,13.142978 58.2327017,13.2003439 L58.2327017,13.7148439 L58.2301847,13.7148439 L58.2301847,19.5096915 L58.2327017,19.5096915 L58.2327017,19.8826976 Z M62.2088173,13.7148439 L62.2088173,13.7148439 L62.2088173,13.2003439 C62.2088173,10.9226122 60.380967,9.07525244 58.1278684,9.07525244 L51.524501,9.07525244 C51.4877527,9.07525244 51.4585554,9.0798622 51.4218071,9.0798622 L51.4218071,9.07525244 L47.4505997,9.07525244 L47.4505997,13.1255634 C47.4480827,13.1502768 47.4459432,13.1756305 47.4459432,13.2003439 L47.4459432,19.8826976 C47.4459432,19.9101 47.4480827,19.9349415 47.4505997,19.9596549 L47.4505997,24.010478 L51.4218071,24.010478 L51.4218071,24.0053561 C51.4585554,24.0053561 51.4877527,24.010478 51.524501,24.010478 L58.1278684,24.010478 C60.380967,24.010478 62.2088173,22.1627341 62.2088173,19.8826976 L62.2088173,19.5096915 L62.2088173,13.7148439 Z" id="Fill-47" fill="#0E1E30" mask="url(#mask-2)"></path><path d="M167.700008,9.07983659 L165.883988,9.07983659 L162.979488,9.07983659 L161.163719,9.07983659 C158.908229,9.07983659 157.082518,10.9250195 157.082518,13.2050561 L157.082518,24.0379829 L159.995576,24.0379829 L159.995576,13.2050561 C159.995576,12.553672 160.518736,12.0288 161.163719,12.0288 L162.979488,12.0288 L165.883988,12.0288 L167.700008,12.0288 C168.342852,12.0288 168.865634,12.553672 168.865634,13.2050561 L168.865634,24.0296598 L171.781083,24.0296598 L171.781083,13.2050561 C171.781083,10.9250195 169.953107,9.07983659 167.700008,9.07983659" id="Fill-48" fill="#0E1E30" mask="url(#mask-2)"></path><path d="M117.082976,19.8344872 L117.082976,19.891597 C117.082976,20.5406762 116.562207,21.0752799 115.919364,21.0752799 L109.313857,21.0752799 C108.673782,21.0752799 108.150622,20.5406762 108.150622,19.891597 L108.150622,13.2093713 C108.150622,12.562853 108.673782,12.0331152 109.313857,12.0331152 L115.919364,12.0331152 C116.562207,12.0331152 117.082976,12.562853 117.082976,13.2093713 L117.082976,17.3867067 L117.082976,19.8344872 Z M115.919364,9.07237134 L109.313857,9.07237134 C107.060759,9.07237134 105.235048,10.9459811 105.235048,13.2237128 L105.235048,19.9059384 C105.235048,22.1835421 107.060759,24.0337189 109.313857,24.0337189 L115.919364,24.0337189 C118.170323,24.0337189 119.998048,22.1835421 119.998048,19.9059384 L119.998048,19.8487006 L119.998048,17.4009201 L119.998048,13.2237128 C119.998048,10.9459811 118.170323,9.07237134 115.919364,9.07237134 L115.919364,9.07237134 Z" id="Fill-49" fill="#0E1E30" mask="url(#mask-2)"></path><path d="M151.587842,19.8344872 L151.587842,19.891597 C151.587842,20.5406762 151.066948,21.0752799 150.421965,21.0752799 L143.821366,21.0752799 C143.181165,21.0752799 142.65788,20.5406762 142.65788,19.8773835 L142.65788,13.1951579 C142.65788,12.562853 143.181165,12.0331152 143.821366,12.0331152 L150.421965,12.0331152 C151.066948,12.0331152 151.587842,12.562853 151.587842,13.2093713 L151.587842,17.3867067 L151.587842,19.8344872 Z M150.421965,9.07237134 L143.821366,9.07237134 C141.570659,9.07237134 139.742556,10.9459811 139.742556,13.2237128 L139.742556,19.9059384 C139.742556,22.1835421 141.570659,24.0337189 143.821366,24.0337189 L150.421965,24.0337189 C152.677832,24.0337189 154.505556,22.1835421 154.505556,19.9059384 L154.505556,19.8487006 L154.505556,17.4009201 L154.505556,13.2237128 C154.505556,10.9459811 152.677832,9.07237134 150.421965,9.07237134 L150.421965,9.07237134 Z" id="Fill-50" fill="#0E1E30" mask="url(#mask-2)"></path><path d="M126.69209,21.1007872 C126.048995,21.1007872 125.516774,20.4919152 125.516774,19.8405311 L125.516774,15.0439518 L130.487862,15.0439518 L130.487862,12.0147018 L125.516774,12.0147018 L125.516774,9.06432988 C125.516774,9.05895183 125.521556,9.06842744 125.521556,9.06100061 L122.603716,9.06100061 L122.603716,9.06432988 L122.603716,19.8832994 C122.603716,22.163464 124.428923,24.0537201 126.680009,24.0537201 L131.73441,24.0537201 L131.73441,21.1007872 L126.69209,21.1007872 Z" id="Fill-51" fill="#0E1E30" mask="url(#mask-2)"></path><polygon id="Fill-52" fill="#0E1E30" mask="url(#mask-2)" points="134.232476 24.0425671 137.216136 24.0425671 137.216136 9.07264024 134.232476 9.07264024"></polygon><path d="M98.6508724,9.07264024 L98.3568861,9.07264024 L95.2945697,9.07264024 L95.0029745,9.07264024 C94.020335,9.07264024 93.1194983,9.43809146 92.4232942,10.037872 C91.7223078,9.43809146 90.8252466,9.07264024 89.8400901,9.07264024 L89.5459779,9.07264024 L86.474852,9.07264024 L86.1811173,9.07264024 C83.9578452,9.07264024 82.1584371,10.9520122 82.1584371,13.2330732 L82.1584371,24.0229756 L85.0344949,24.0229756 L85.0344949,13.2330732 C85.0344949,12.5811768 85.5451956,12.0369695 86.1811173,12.0369695 L86.474852,12.0369695 L89.5459779,12.0369695 L89.8400901,12.0369695 C90.4614133,12.0369695 90.9626752,12.5587683 90.9868384,13.1908171 C90.9868384,13.2056707 90.9841956,13.2179634 90.9841956,13.2330732 L90.9841956,21.1108902 L90.9892296,21.1108902 L93.8542126,21.1108902 L93.8639031,21.1108902 L93.8639031,13.2330732 C93.8639031,13.2179634 93.8564779,13.2056707 93.8564779,13.1908171 C93.880767,12.5587683 94.3792602,12.0369695 95.0029745,12.0369695 L95.2945697,12.0369695 L98.3568861,12.0369695 L98.6508724,12.0369695 C99.2818861,12.0369695 99.7971173,12.5811768 99.7971173,13.2330732 L99.7971173,24.0229756 L102.668519,24.0229756 L102.668519,13.2330732 C102.668519,10.9520122 100.869111,9.07264024 98.6508724,9.07264024" id="Fill-53" fill="#0E1E30" mask="url(#mask-2)"></path></g></g></g></g></g></g></g></svg> 