<svg enable-background="new 0 0 256 256" version="1.1" viewBox="0 0 256 256" xml:space="preserve" xmlns="http://www.w3.org/2000/svg"><defs><filter id="filter1395" x="0" y="0" width="1" height="1" color-interpolation-filters="sRGB"><feColorMatrix values="2 -0.5 -0.5 0 0 -0.5 2 -0.5 0 0 -0.5 -0.5 2 0 0 0 0 0 1 0 "/></filter></defs>
<style type="text/css">
	.st0{fill:#4C4372;}
	.st1{fill:#F0C48A;}
	.st2{fill:#FD919E;}
	.st3{fill:#D3E6F8;}
	.st4{fill:#A4CFF2;}
	.st5{fill:#FFFFFF;}
	.st6{fill:#7BABF1;}
	.st7{fill:#E8677D;}
</style>
<g filter="url(#filter1395)">
	
		
			<circle class="st1" cx="128" cy="128" r="103.5"/>
		
	
	
		
			<path class="st2" d="m212.53 108.76c0-15.753-12.77-28.522-28.522-28.522-0.327 0-0.649 0.013-0.973 0.024-3.257-12.168-14.354-21.13-27.549-21.13-5.927 0-11.431 1.809-15.992 4.903-5.147-7.441-13.737-12.319-23.47-12.319-10.592 0-19.829 5.778-24.748 14.349-1.236-0.163-2.494-0.256-3.774-0.256-14.514 0-26.487 10.843-28.281 24.87-9.334 4.688-15.744 14.341-15.744 25.498 0 5.198 1.397 10.065 3.825 14.262-2.623 4.531-4.042 9.845-3.798 15.511 0.619 14.41 12.142 26.242 26.533 27.206 8.232 0.551 15.776-2.396 21.302-7.498 4.935 8.512 14.138 14.242 24.685 14.242 7.659 0 14.607-3.025 19.731-7.937 5.124 4.912 12.072 7.937 19.731 7.937l13.762 21.676c1.594 2.51 4.815 3.429 7.493 2.136l10.481-5.06c2.906-1.403 4.131-4.892 2.738-7.804l-9.063-18.951c13.881-1.925 24.57-13.831 24.57-28.243 0-4.695-1.142-9.121-3.152-13.028 6.243-5.232 10.215-13.084 10.215-21.866z"/>
		
		
			<path class="st7" d="m180.73 89.169c5.32 0.409 13.796 3.422 18.87 10.26 8.314 12.577-1.877 24.804-5.84 28.82-0.862 0.873-1.128 2.161-0.726 3.321 8.263 23.868-11.455 31.188-20.395 33.241-2.042 0.469-3.091 2.733-2.129 4.593l15.432 29.857 1.274-0.615c2.906-1.403 4.131-4.892 2.738-7.804l-9.063-18.951c13.881-1.925 24.57-13.831 24.57-28.243 0-4.695-1.142-9.121-3.152-13.028 6.242-5.231 10.214-13.083 10.214-21.865 0-15.753-12.77-28.522-28.522-28.522-0.327 0-0.649 0.013-0.973 0.024-3.257-12.168-14.354-21.13-27.549-21.13-5.927 0-11.431 1.809-15.992 4.903 18.938-3.932 35.258 8.123 38.315 22.583 0.298 1.414 1.486 2.446 2.928 2.556z"/>
		
		
			<path class="st0" d="m174.19 207.29c-3.051 0-5.848-1.537-7.482-4.111l-12.906-20.328c-6.623-0.348-12.901-2.753-18.054-6.902-5.586 4.498-12.495 6.946-19.731 6.946-10.024 0-19.45-4.831-25.354-12.805-5.961 4.393-13.328 6.56-20.834 6.054-16.03-1.074-28.639-14.001-29.329-30.07-0.234-5.449 0.933-10.821 3.383-15.641-2.237-4.405-3.413-9.3-3.413-14.261 0-11.465 6.094-21.838 16.007-27.438 2.667-14.889 15.732-25.93 31.018-25.93 0.722 0 1.461 0.027 2.209 0.082 5.808-8.79 15.717-14.174 26.313-14.174 9.391 0 18.248 4.194 24.212 11.344 4.652-2.577 9.87-3.928 15.25-3.928 13.465 0 25.388 8.58 29.763 21.13 16.808 0.655 30.281 14.533 30.281 31.498 0 8.565-3.456 16.679-9.556 22.602 1.656 3.888 2.494 8.012 2.494 12.291 0 14.287-9.734 26.716-23.211 30.404l7.41 15.495c2.1 4.391 0.242 9.684-4.141 11.8l-10.481 5.06c-1.212 0.585-2.507 0.882-3.848 0.882zm-38.443-38.332c0.748 0 1.496 0.278 2.076 0.834 4.778 4.58 11.048 7.103 17.655 7.103 1.027 0 1.982 0.525 2.533 1.392l13.762 21.676c0.759 1.194 2.367 1.666 3.656 1.042l10.481-5.06c1.415-0.683 2.014-2.391 1.336-3.808l-9.063-18.951c-0.413-0.864-0.389-1.873 0.064-2.715 0.454-0.843 1.282-1.419 2.23-1.551 12.532-1.738 21.982-12.602 21.982-25.271 0-4.098-0.949-8.019-2.819-11.655-0.642-1.247-0.334-2.771 0.741-3.672 5.809-4.869 9.141-12 9.141-19.565 0-14.073-11.449-25.522-25.522-25.522-0.241 0-0.48 9e-3 -0.719 0.017l-0.154 5e-3c-1.415 0.051-2.637-0.875-2.998-2.223-2.979-11.131-13.116-18.906-24.651-18.906-5.131 0-10.079 1.517-14.308 4.385-1.362 0.924-3.215 0.579-4.151-0.776-4.776-6.904-12.627-11.025-21.002-11.025-9.114 0-17.6 4.921-22.146 12.842-0.606 1.055-1.788 1.641-2.995 1.481-1.159-0.153-2.297-0.23-3.382-0.23-12.804 0-23.683 9.565-25.306 22.25-0.126 0.99-0.737 1.852-1.629 2.3-8.691 4.364-14.09 13.107-14.09 22.816 0 4.479 1.183 8.891 3.422 12.759 0.538 0.929 0.538 2.076 0 3.005-2.432 4.202-3.606 9.001-3.397 13.88 0.55 12.794 10.976 23.486 23.736 24.341 7.115 0.473 13.911-1.95 19.066-6.709 0.669-0.618 1.581-0.897 2.483-0.762 0.9 0.136 1.69 0.674 2.147 1.461 4.559 7.862 13.023 12.747 22.09 12.747 6.606 0 12.876-2.522 17.655-7.103 0.581-0.554 1.328-0.832 2.076-0.832z"/>
		
	
	
		<path class="st0" d="m91.272 103.57c-1.657 0-3-1.343-3-3v-34.507c0-1.657 1.343-3 3-3s3 1.343 3 3v34.508c0 1.656-1.343 2.999-3 2.999z"/>
	
	
		<path class="st0" d="m201.09 161.82h-37.32c-1.657 0-3-1.343-3-3v-13.645h-44.746c-1.657 0-3-1.343-3-3v-24.966c0-1.657 1.343-3 3-3h20.47v-23.96h-20.47c-1.657 0-3-1.343-3-3v-35.542c0-1.657 1.343-3 3-3s3 1.343 3 3v32.542h20.47c1.657 0 3 1.343 3 3v29.96c0 1.657-1.343 3-3 3h-20.47v18.966h44.746c1.657 0 3 1.343 3 3v13.645h34.32c1.657 0 3 1.343 3 3s-1.343 3-3 3z"/>
	
	
		<path class="st0" d="m68.062 133.43h-20.764c-1.657 0-3-1.343-3-3s1.343-3 3-3h20.764c1.657 0 3 1.343 3 3s-1.343 3-3 3z"/>
	
	
		<path class="st0" d="m80.545 174.91c-1.657 0-3-1.343-3-3v-22.964h-34.045c-1.657 0-3-1.343-3-3s1.343-3 3-3h37.045c1.657 0 3 1.343 3 3v25.964c0 1.656-1.343 3-3 3z"/>
	
	
		<path class="st0" d="m116.02 182.89c-1.657 0-3-1.343-3-3v-13.121c0-1.657 1.343-3 3-3s3 1.343 3 3v13.121c0 1.656-1.344 3-3 3z"/>
	
	
		<path class="st0" d="m145.78 181.29c-1.657 0-3-1.343-3-3v-19.365c0-1.657 1.343-3 3-3s3 1.343 3 3v19.365c0 1.656-1.344 3-3 3z"/>
	
	
		<path class="st0" d="m183.03 83.257h-16.477c-1.657 0-3-1.343-3-3s1.343-3 3-3h16.477c1.657 0 3 1.343 3 3s-1.344 3-3 3z"/>
	
	
		<path class="st0" d="m186.71 131c-1.657 0-3-1.343-3-3v-27.432c0-1.657 1.343-3 3-3h24.618c1.657 0 3 1.343 3 3s-1.343 3-3 3h-21.618v24.432c0 1.657-1.343 3-3 3z"/>
	
	
		<path class="st0" d="m163.5 105.63h-24.01c-1.657 0-3-1.343-3-3s1.343-3 3-3h24.01c1.657 0 3 1.343 3 3s-1.343 3-3 3z"/>
	
	
		<path class="st0" d="m62.022 108.27h-14.724c-1.657 0-3-1.343-3-3s1.343-3 3-3h14.724c1.657 0 3 1.343 3 3s-1.343 3-3 3z"/>
	
	
		<circle class="st6" cx="91.273" cy="108.76" r="7.476"/>
	
	
		<path class="st0" d="m91.272 119.24c-5.776 0-10.476-4.7-10.476-10.477 0-5.776 4.7-10.476 10.476-10.476 5.777 0 10.477 4.7 10.477 10.476 0 5.777-4.7 10.477-10.477 10.477zm0-14.953c-2.468 0-4.476 2.008-4.476 4.476s2.008 4.477 4.476 4.477 4.477-2.008 4.477-4.477-2.008-4.476-4.477-4.476z"/>
	
	
		<circle class="st6" cx="76.32" cy="130.43" r="7.476"/>
	
	
		<path class="st0" d="m76.32 140.91c-5.776 0-10.476-4.7-10.476-10.476 0-5.777 4.7-10.477 10.476-10.477 5.777 0 10.477 4.7 10.477 10.477-1e-3 5.776-4.7 10.476-10.477 10.476zm0-14.952c-2.468 0-4.476 2.008-4.476 4.477s2.008 4.476 4.476 4.476 4.477-2.008 4.477-4.476-2.009-4.477-4.477-4.477z"/>
	
	
		<circle class="st6" cx="165.63" cy="102.63" r="7.476"/>
	
	
		<path class="st0" d="m165.64 113.1c-5.777 0-10.477-4.7-10.477-10.476 0-5.777 4.7-10.477 10.477-10.477 5.776 0 10.476 4.7 10.476 10.477 0 5.776-4.699 10.476-10.476 10.476zm0-14.953c-2.468 0-4.477 2.008-4.477 4.477s2.008 4.476 4.477 4.476 4.476-2.008 4.476-4.476-2.007-4.477-4.476-4.477z"/>
	
	
		<circle class="st6" cx="186.72" cy="128.08" r="7.476"/>
	
	
		<path class="st0" d="m186.71 138.56c-5.776 0-10.476-4.7-10.476-10.476 0-5.777 4.7-10.477 10.476-10.477 5.777 0 10.477 4.7 10.477 10.477 0 5.776-4.7 10.476-10.477 10.476zm0-14.953c-2.468 0-4.476 2.008-4.476 4.477s2.008 4.476 4.476 4.476 4.477-2.008 4.477-4.476-2.008-4.477-4.477-4.477z"/>
	
	
		<circle class="st6" cx="116.02" cy="161.13" r="7.476"/>
	
	
		<path class="st0" d="m116.02 171.61c-5.776 0-10.476-4.7-10.476-10.477 0-5.776 4.7-10.476 10.476-10.476 5.777 0 10.477 4.7 10.477 10.476-1e-3 5.777-4.701 10.477-10.477 10.477zm0-14.953c-2.468 0-4.476 2.008-4.476 4.476s2.008 4.477 4.476 4.477 4.477-2.008 4.477-4.477-2.009-4.476-4.477-4.476z"/>
	
</g>
</svg>
