<svg enable-background="new 0 0 256 256" version="1.1" viewBox="0 0 256 256" xml:space="preserve" xmlns="http://www.w3.org/2000/svg"><defs><filter id="filter2638" x="0" y="0" width="1" height="1" color-interpolation-filters="sRGB"><feColorMatrix values="2 -0.5 -0.5 0 0 -0.5 2 -0.5 0 0 -0.5 -0.5 2 0 0 0 0 0 1 0 "/></filter></defs>
<style type="text/css">
	.st0{fill:#4C4372;}
	.st1{fill:#F0C48A;}
	.st2{fill:#FD919E;}
	.st3{fill:#D3E6F8;}
	.st4{fill:#A4CFF2;}
	.st5{fill:#FFFFFF;}
	.st6{fill:#7BABF1;}
	.st7{fill:#E8677D;}
</style>
<g filter="url(#filter2638)">
	
		
			<circle class="st1" cx="128" cy="128" r="103.5"/>
		
	
	
		<path class="st5" d="m109.2 77.603c-4.133 0-7.483 3.35-7.483 7.483v-8.686c0-4.133-3.35-7.483-7.483-7.483s-7.483 3.35-7.483 7.483v-8.685c0-4.133-3.35-7.483-7.482-7.483-4.133 0-7.483 3.35-7.483 7.483v8.685c0-4.133-3.351-7.483-7.483-7.483-4.133 0-7.482 3.35-7.482 7.483v51.247c0-4.133-3.351-7.483-7.483-7.483s-7.483 3.35-7.483 7.483v26.663c0 4.133 3.351 7.483 7.483 7.483h7.483v7.476c0 4.572 3.705 8.277 8.276 8.277h3.026v18.222h37.259v-18.222h3.026c4.571 0 8.276-3.705 8.276-8.277v-84.183c-1e-3 -4.133-3.351-7.483-7.484-7.483z"/>
	
	
		<path class="st3" d="m105.38 195.77v-18.222h3.026c4.571 0 8.276-3.705 8.276-8.277v-84.183c0-4.133-3.35-7.483-7.483-7.483-1.758 0-3.371 0.61-4.647 1.625v85.003c0 2.168-1.759 3.927-3.927 3.927-2.169 0-3.927 1.758-3.927 3.926v23.684z"/>
	
	
		<path class="st0" d="m105.38 198.77h-37.259c-1.657 0-3-1.343-3-3l-0.026-15.222c-6.218 0-11.276-5.059-11.276-11.277v-4.476h-4.483c-5.78 0-10.483-4.703-10.483-10.483v-26.663c0-5.781 4.703-10.483 10.483-10.483 1.604 0 3.123 0.362 4.483 1.008v-41.772c0-5.78 4.702-10.483 10.482-10.483 1.614 0 3.145 0.367 4.512 1.021 0.398-5.419 4.936-9.707 10.455-9.707s10.056 4.288 10.454 9.707c1.367-0.655 2.897-1.021 4.512-1.021 5.52 0 10.057 4.287 10.455 9.707 1.367-0.655 2.897-1.021 4.512-1.021 5.78 0 10.482 4.703 10.482 10.483v84.183c0 6.218-5.059 11.277-11.276 11.277h-0.026v15.222c-1e-3 1.656-1.344 3-3.001 3zm-34.259-6h31.259v-15.222c0-1.657 1.343-3 3-3h3.026c2.909 0 5.276-2.367 5.276-5.277v-84.183c0-2.472-2.011-4.483-4.482-4.483s-4.483 2.011-4.483 4.483c0 1.657-1.343 3-3 3s-3-1.343-3-3v-8.686c0-2.472-2.012-4.483-4.483-4.483s-4.483 2.011-4.483 4.483c0 1.657-1.343 3-3 3s-3-1.343-3-3v-8.685c0-2.472-2.011-4.483-4.482-4.483s-4.483 2.011-4.483 4.483v8.685c0 1.657-1.343 3-3 3s-3-1.343-3-3c0-2.472-2.012-4.483-4.483-4.483s-4.482 2.011-4.482 4.483v51.247c0 1.657-1.343 3-3 3s-3-1.343-3-3c0-2.472-2.012-4.483-4.483-4.483-2.473 0-4.483 2.011-4.483 4.483v26.663c0 2.472 2.011 4.483 4.483 4.483h7.483c1.657 0 3 1.343 3 3v7.476c0 2.91 2.367 5.277 5.276 5.277h3.026c1.657 0 3 1.343 3 3v15.222z"/>
	
	
		
			<path class="st3" d="m49.709 120.18c0.031 0.275 0.05 0.554 0.05 0.838v-0.835c-0.017-2e-3 -0.033-2e-3 -0.05-3e-3z"/>
		
	
	
		<path class="st0" d="m56.816 150.93c-1.657 0-3-1.343-3-3v-20.28c0-1.657 1.343-3 3-3s3 1.343 3 3v20.28c0 1.657-1.342 3-3 3z"/>
	
	
		<path class="st0" d="m71.782 118.36c-1.657 0-3-1.343-3-3v-38.955c0-1.657 1.343-3 3-3s3 1.343 3 3v38.955c0 1.657-1.343 3-3 3z"/>
	
	
		<path class="st0" d="m86.748 118.36c-1.657 0-3-1.343-3-3v-38.955c0-1.657 1.343-3 3-3s3 1.343 3 3v38.955c0 1.657-1.343 3-3 3z"/>
	
	
		<path class="st0" d="m101.72 118.36c-1.657 0-3-1.343-3-3v-30.269c0-1.657 1.343-3 3-3s3 1.343 3 3v30.269c0 1.657-1.343 3-3 3z"/>
	
	
		<path class="st5" d="m146.8 77.603c4.133 0 7.483 3.35 7.483 7.483v-8.686c0-4.133 3.35-7.483 7.483-7.483s7.483 3.35 7.483 7.483v-8.685c0-4.133 3.35-7.483 7.482-7.483 4.133 0 7.483 3.35 7.483 7.483v8.685c0-4.133 3.351-7.483 7.483-7.483s7.482 3.35 7.482 7.483v51.247c0-4.133 3.351-7.483 7.483-7.483 4.133 0 7.483 3.35 7.483 7.483v26.663c0 4.133-3.351 7.483-7.483 7.483h-7.483v7.476c0 4.572-3.705 8.277-8.276 8.277h-3.026v18.222h-37.259v-18.222h-3.026c-4.571 0-8.276-3.705-8.276-8.277v-84.183c1e-3 -4.133 3.351-7.483 7.484-7.483z"/>
	
	
		<path class="st3" d="m187.88 177.55h3.026c4.571 0 8.276-3.706 8.276-8.276v-7.477h7.483c4.133 0 7.483-3.351 7.483-7.483v-26.35c0-4.097-3.157-7.67-7.253-7.793-4.238-0.127-7.714 3.271-7.714 7.48v-50.953c0-3.919-2.888-7.394-6.791-7.746-2.729-0.246-5.18 0.981-6.673 2.968v92.602c0 1.986-1.61 3.597-3.597 3.597s-3.598 1.611-3.598 3.598v24.055h9.355v-18.222z"/>
	
	
		
			<path class="st3" d="m206.29 120.18c-0.031 0.275-0.05 0.554-0.05 0.838v-0.835c0.017-2e-3 0.033-2e-3 0.05-3e-3z"/>
		
	
	
		<path class="st0" d="m199.18 150.93c-1.657 0-3-1.343-3-3v-20.28c0-1.657 1.343-3 3-3s3 1.343 3 3v20.28c0 1.657-1.343 3-3 3z"/>
	
	
		<path class="st0" d="m184.22 118.36c-1.657 0-3-1.343-3-3v-38.955c0-1.657 1.343-3 3-3s3 1.343 3 3v38.955c0 1.657-1.343 3-3 3z"/>
	
	
		<path class="st0" d="m169.25 118.36c-1.657 0-3-1.343-3-3v-38.955c0-1.657 1.343-3 3-3s3 1.343 3 3v38.955c0 1.657-1.343 3-3 3z"/>
	
	
		<path class="st0" d="m154.28 118.36c-1.657 0-3-1.343-3-3v-30.269c0-1.657 1.343-3 3-3s3 1.343 3 3v30.269c0 1.657-1.343 3-3 3z"/>
	
	
		<path class="st0" d="m187.88 198.77h-37.259c-1.657 0-3-1.343-3-3l-0.026-15.222c-6.218 0-11.276-5.059-11.276-11.277v-84.183c0-5.781 4.702-10.483 10.482-10.483 1.614 0 3.145 0.367 4.512 1.021 0.398-5.419 4.936-9.707 10.455-9.707 1.614 0 3.145 0.367 4.512 1.021 0.398-5.419 4.936-9.707 10.454-9.707 5.52 0 10.057 4.288 10.455 9.707 1.367-0.655 2.897-1.021 4.512-1.021 5.78 0 10.482 4.703 10.482 10.483v41.771c1.36-0.646 2.88-1.008 4.483-1.008 5.78 0 10.483 4.703 10.483 10.483v26.663c0 5.781-4.703 10.483-10.483 10.483h-4.483v4.476c0 6.218-5.059 11.277-11.276 11.277h-0.026v15.222c-1e-3 1.657-1.344 3.001-3.001 3.001zm-34.259-6h31.259v-15.222c0-1.657 1.343-3 3-3h3.026c2.909 0 5.276-2.367 5.276-5.277v-7.476c0-1.657 1.343-3 3-3h7.483c2.473 0 4.483-2.011 4.483-4.483v-26.663c0-2.472-2.011-4.483-4.483-4.483s-4.483 2.011-4.483 4.483c0 1.657-1.343 3-3 3s-3-1.343-3-3v-51.247c0-2.472-2.011-4.483-4.482-4.483s-4.483 2.011-4.483 4.483c0 1.657-1.343 3-3 3s-3-1.343-3-3v-8.685c0-2.472-2.012-4.483-4.483-4.483s-4.482 2.011-4.482 4.483v8.685c0 1.657-1.343 3-3 3s-3-1.343-3-3c0-2.472-2.012-4.483-4.483-4.483s-4.483 2.011-4.483 4.483v8.686c0 1.657-1.343 3-3 3s-3-1.343-3-3c0-2.472-2.012-4.483-4.483-4.483s-4.482 2.011-4.482 4.483v84.183c0 2.91 2.367 5.277 5.276 5.277h3.026c1.657 0 3 1.343 3 3v15.222z"/>
	
	
		<circle class="st3" cx="128" cy="138.86" r="47.225"/>
	
	
		<path class="st4" d="m128 91.632c-1.861 0-3.695 0.111-5.501 0.321 23.489 2.725 41.724 22.683 41.724 46.903s-18.234 44.178-41.724 46.903c1.806 0.21 3.64 0.321 5.501 0.321 26.081 0 47.225-21.144 47.225-47.225 0-26.08-21.144-47.223-47.225-47.223z"/>
	
	
		<path class="st0" d="m128 189.08c-27.694 0-50.225-22.531-50.225-50.225s22.531-50.224 50.225-50.224 50.225 22.53 50.225 50.224-22.531 50.225-50.225 50.225zm0-94.449c-24.386 0-44.225 19.839-44.225 44.224 0 24.386 19.839 44.225 44.225 44.225s44.225-19.839 44.225-44.225c0-24.385-19.839-44.224-44.225-44.224z"/>
	
	
		<path class="st0" d="m128 189.08c-14.923 0-26.612-22.062-26.612-50.225s11.689-50.224 26.612-50.224 26.612 22.061 26.612 50.224-11.689 50.225-26.612 50.225zm0-94.449c-11.173 0-20.612 20.252-20.612 44.224s9.439 44.225 20.612 44.225 20.612-20.252 20.612-44.225-9.439-44.224-20.612-44.224z"/>
	
	
		
			<path class="st0" d="m169.33 164.72h-82.258c-1.657 0-3-1.343-3-3s1.343-3 3-3h82.258c1.657 0 3 1.343 3 3s-1.343 3-3 3z"/>
		
		
			<path class="st0" d="m175.22 141.86h-94.45c-1.657 0-3-1.343-3-3s1.343-3 3-3h94.449c1.657 0 3 1.343 3 3s-1.342 3-2.999 3z"/>
		
		
			<path class="st0" d="m169.33 119h-82.661c-1.657 0-3-1.343-3-3s1.343-3 3-3h82.661c1.657 0 3 1.343 3 3s-1.343 3-3 3z"/>
		
	
	
		<path class="st0" d="m128 189.08c-1.657 0-3-1.343-3-3v-94.449c0-1.657 1.343-3 3-3s3 1.343 3 3v94.449c0 1.657-1.343 3-3 3z"/>
	
</g>
</svg>
