<svg enable-background="new 0 0 256 256" version="1.1" viewBox="0 0 256 256" xml:space="preserve" xmlns="http://www.w3.org/2000/svg"><defs><filter id="filter934" x="0" y="0" width="1" height="1" color-interpolation-filters="sRGB"><feColorMatrix values="2 -0.5 -0.5 0 0 -0.5 2 -0.5 0 0 -0.5 -0.5 2 0 0 0 0 0 1 0 "/></filter></defs>
<style type="text/css">
	.st0{fill:#4C4372;}
	.st1{fill:#F0C48A;}
	.st2{fill:#FD919E;}
	.st3{fill:#D3E6F8;}
	.st4{fill:#A4CFF2;}
	.st5{fill:#FFFFFF;}
	.st6{fill:#7BABF1;}
	.st7{fill:#E8677D;}
</style>
<g filter="url(#filter934)">
	
		<circle class="st1" cx="128" cy="128" r="103.5"/>
	
	
		<path class="st2" d="m202.38 90.062c-0.949-27.669-23.676-49.805-51.576-49.806v17.286c-1.32-0.913-2.918-1.45-4.644-1.45-4.517 0-8.179 3.662-8.179 8.178 0 4.517 3.662 8.178 8.179 8.178 1.726 0 3.323-0.538 4.644-1.45v19.064h19.881c-1.404 1.468-2.271 3.454-2.271 5.646 0 4.516 3.661 8.178 8.178 8.178s8.178-3.662 8.178-8.178c0-2.192-0.867-4.177-2.27-5.646z"/>
	
	
		<path class="st7" d="m150.81 40.256v9.463s39.961 2.594 40.965 40.342h10.611c-0.949-27.669-23.676-49.805-51.576-49.805z"/>
	
	
		<path class="st3" d="m136.92 101.46c1.403 1.468 2.27 3.454 2.27 5.645 0 4.517-3.661 8.178-8.178 8.178s-8.178-3.662-8.178-8.178c0-2.191 0.867-4.177 2.271-5.645h-19.881v-19.064c-1.319 0.913-2.918 1.45-4.644 1.45-4.517 0-8.178-3.662-8.178-8.178s3.661-8.178 8.178-8.178c1.726 0 3.324 0.538 4.644 1.45v-17.286c-0.245 0-0.49-2e-3 -0.736 1e-3 -28.143 0.392-50.963 23.625-50.875 51.772 0.054 17.214 8.537 32.442 21.537 41.779 4.646 3.337 7.32 8.776 7.32 14.496v10.709h45.507v-10.708c0-5.716 2.667-11.156 7.31-14.49 13.048-9.366 21.548-24.665 21.548-41.952 0-0.603-0.015-1.203-0.035-1.801z"/>
	
	
		<path class="st4" d="m127.98 159.71c0-5.716 2.667-11.156 7.31-14.49 13.048-9.366 21.548-24.665 21.548-41.952 0-0.603-0.015-1.203-0.035-1.802h-19.881c1.224 1.28 2.039 2.954 2.227 4.814 7.216 20.984-21.082 34.725-21.082 34.725v29.413h9.912v-10.708z"/>
	
	
		<path class="st5" d="m130.36 186.78h-50.264c-4.52 0-8.183-3.664-8.183-8.183s3.663-8.183 8.183-8.183h50.265c4.52 0 8.184 3.664 8.184 8.183-1e-3 4.52-3.665 8.183-8.185 8.183z"/>
	
	
		<path class="st5" d="m105.23 215.74c-12.566 0-22.754-10.187-22.754-22.753v-6.209h45.507v6.209c-1e-3 12.566-10.187 22.753-22.753 22.753z"/>
	
	
		<path class="st3" d="m117.42 186.78v6.209c0 10.748-7.454 19.749-17.473 22.131 1.695 0.403 3.462 0.622 5.281 0.622 12.566 0 22.753-10.187 22.753-22.753v-6.209z"/>
	
	
		<path class="st3" d="m130.36 170.42h-18.296c4.52 0 8.184 3.664 8.184 8.183 0 4.52-3.664 8.183-8.184 8.183h18.296c4.52 0 8.184-3.664 8.184-8.183s-3.664-8.183-8.184-8.183z"/>
	
	
		<path class="st0" d="m105.23 218.74c-14.201 0-25.754-11.553-25.754-25.753v-6.209c0-1.657 1.343-3 3-3h45.507c1.657 0 3 1.343 3 3v6.209c-1e-3 14.2-11.553 25.753-25.753 25.753zm-19.754-28.963v3.209c0 10.892 8.861 19.753 19.754 19.753 10.892 0 19.753-8.861 19.753-19.753v-3.209z"/>
	
	
		<path class="st0" d="m130.36 189.78h-50.264c-6.166 0-11.183-5.017-11.183-11.183s5.017-11.183 11.183-11.183h50.265c6.167 0 11.184 5.017 11.184 11.183s-5.018 11.183-11.185 11.183zm-50.264-16.366c-2.857 0-5.183 2.325-5.183 5.183s2.325 5.183 5.183 5.183h50.265c2.858 0 5.184-2.325 5.184-5.183s-2.325-5.183-5.184-5.183z"/>
	
	
		
			<path class="st0" d="m99.6 144h-7.215c-5.632 0-10.214-4.582-10.214-10.214s4.582-10.215 10.214-10.215c5.633 0 10.215 4.583 10.215 10.215v7.214c0 1.657-1.343 3-3 3zm-7.215-14.429c-2.323 0-4.214 1.891-4.214 4.215s1.891 4.214 4.214 4.214h4.215v-4.214c0-2.324-1.891-4.215-4.215-4.215z"/>
		
		
			<path class="st0" d="m118.07 144h-7.214c-1.657 0-3-1.343-3-3v-7.214c0-5.632 4.582-10.215 10.214-10.215 5.633 0 10.215 4.583 10.215 10.215s-4.582 10.214-10.215 10.214zm-4.213-6h4.214c2.324 0 4.215-1.891 4.215-4.214 0-2.324-1.891-4.215-4.215-4.215-2.323 0-4.214 1.891-4.214 4.215z"/>
		
	
	
		<path class="st0" d="m110.85 173.42c-1.657 0-3-1.343-3-3v-26.413h-5.254v26.413c0 1.657-1.343 3-3 3s-3-1.343-3-3v-29.413c0-1.657 1.343-3 3-3h11.254c1.657 0 3 1.343 3 3v29.413c0 1.657-1.343 3-3 3z"/>
	
	
		<path class="st0" d="m127.98 173.42h-45.506c-1.657 0-3-1.343-3-3v-10.709c0-4.821-2.27-9.33-6.07-12.06-14.214-10.208-22.732-26.734-22.787-44.207-0.093-29.791 24.057-54.366 53.833-54.78l0.346-2e-3 0.433 1e-3c1.657 0 3 1.343 3 3v17.286c0 1.116-0.619 2.139-1.607 2.657-0.987 0.518-2.181 0.445-3.1-0.19-0.867-0.6-1.883-0.917-2.937-0.917-2.855 0-5.178 2.323-5.178 5.178s2.322 5.178 5.178 5.178c1.054 0 2.069-0.317 2.937-0.917 0.919-0.635 2.112-0.708 3.1-0.19s1.607 1.542 1.607 2.657v16.064h16.881c1.201 0 2.286 0.716 2.759 1.821 0.472 1.104 0.239 2.384-0.591 3.252-0.928 0.97-1.438 2.239-1.438 3.572 0 2.855 2.322 5.178 5.178 5.178s5.178-2.323 5.178-5.178c0-1.333-0.511-2.602-1.438-3.572-0.83-0.868-1.063-2.148-0.591-3.252 0.473-1.104 1.558-1.821 2.759-1.821h19.881c1.617 0 2.942 1.281 2.998 2.897 0.021 0.632 0.037 1.267 0.037 1.904 0 17.548-8.522 34.142-22.799 44.389-3.794 2.724-6.06 7.23-6.06 12.053v10.708c-3e-3 1.657-1.345 3-3.003 3zm-42.506-6h39.507v-7.708c0-6.751 3.2-13.079 8.562-16.927 12.384-8.889 19.904-23.142 20.282-38.316h-11.947c0.209 0.857 0.316 1.744 0.316 2.645 0 6.164-5.015 11.178-11.178 11.178s-11.178-5.015-11.178-11.178c0-0.901 0.107-1.788 0.316-2.645h-14.927c-1.657 0-3-1.343-3-3v-14.735c-0.541 0.08-1.09 0.121-1.644 0.121-6.163 0-11.178-5.015-11.178-11.178s5.015-11.178 11.178-11.178c0.554 0 1.103 0.041 1.644 0.121v-9.869c-25.434 1.563-45.691 22.931-45.611 48.676 0.049 15.552 7.633 30.263 20.287 39.352 5.366 3.854 8.57 10.184 8.57 16.933v7.708z"/>
	
	
		<path class="st0" d="m176.6 106.88c-6.163 0-11.178-5.014-11.178-11.178 0-0.901 0.107-1.788 0.316-2.646h-14.927c-1.657 0-3-1.343-3-3v-14.734c-0.541 0.08-1.09 0.121-1.644 0.121-6.164 0-11.179-5.015-11.179-11.178s5.015-11.178 11.179-11.178c0.554 0 1.103 0.041 1.644 0.121v-12.957c0-0.796 0.316-1.559 0.879-2.121 0.563-0.563 1.325-0.879 2.121-0.879 29.589 0 53.561 23.15 54.574 52.703 0.028 0.813-0.275 1.603-0.841 2.188s-1.344 0.916-2.157 0.916h-14.927c0.209 0.857 0.316 1.745 0.316 2.646 1e-3 6.162-5.013 11.176-11.176 11.176zm-22.788-19.823h16.881c1.201 0 2.287 0.717 2.759 1.821s0.239 2.384-0.591 3.252c-0.928 0.97-1.438 2.238-1.438 3.572 0 2.855 2.322 5.178 5.178 5.178s5.178-2.323 5.178-5.178c0-1.333-0.511-2.602-1.439-3.573-0.83-0.868-1.062-2.147-0.59-3.252 0.473-1.104 1.558-1.821 2.759-1.821h16.68c-2.305-23.815-21.464-42.282-45.375-43.716v14.196c0 1.115-0.619 2.139-1.606 2.657-0.99 0.518-2.183 0.445-3.1-0.189-0.868-0.601-1.885-0.918-2.938-0.918-2.855 0-5.179 2.323-5.179 5.178s2.323 5.178 5.179 5.178c1.053 0 2.069-0.317 2.938-0.918 0.918-0.635 2.111-0.707 3.1-0.189 0.987 0.518 1.606 1.542 1.606 2.657v16.065z"/>
	
</g>
</svg>
