<?xml version="1.0" encoding="UTF-8" standalone="no"?> <!-- Generator: Adobe Illustrator 16.0.0, SVG Export Plug-In . SVG Version: 6.00 Build 0) --> <svg xmlns:inkscape="http://www.inkscape.org/namespaces/inkscape" xmlns:sodipodi="http://sodipodi.sourceforge.net/DTD/sodipodi-0.dtd" xmlns="http://www.w3.org/2000/svg" xmlns:svg="http://www.w3.org/2000/svg" version="1.0" id="Layer_1" x="0px" y="0px" width="100px" height="100px" viewBox="0 0 100 100" xml:space="preserve" sodipodi:docname="community.svg" inkscape:version="1.1 (c68e22c387, 2021-05-23)"><defs id="defs7961"></defs> <path fill="#020202" d="M76.667,10H23.335c-3.667,0-6.667,3-6.667,6.667v29.999c0,3.667,3,6.667,6.667,6.667h19.999L50,59.998 l6.667-6.667h20c3.663,0,6.666-3,6.666-6.667V16.666C83.333,13,80.33,10,76.667,10z M76.667,46.666H53.906L50,50.569l-3.906-3.905 H23.335V16.666h53.332V46.666z" id="path7938"></path> <polygon fill="#020202" points="50.107,39.999 44.888,39.999 49.891,23.333 55.109,23.333 " id="polygon7940"></polygon> <path fill="#020202" d="M36.953,23.333l-5.98,5.977c-1.294,1.296-1.294,3.418,0,4.714L36.953,40l3.534-3.535l-4.797-4.797 l4.797-4.798L36.953,23.333z" id="path7942"></path> <path fill="#020202" d="M63.054,39.999l5.977-5.977c1.295-1.296,1.295-3.418,0-4.714l-5.977-5.977l-3.535,3.535l4.797,4.798 l-4.797,4.798L63.054,39.999z" id="path7944"></path> <path fill="#00B8D4" d="M56.667,73.33c0,3.683-2.985,6.668-6.667,6.668c-3.677,0-6.667-2.985-6.667-6.668 c0-3.681,2.987-6.665,6.667-6.665C53.682,66.665,56.667,69.649,56.667,73.33z" id="path7946" style="fill:#ae3f25;fill-opacity:1"></path> <path fill="#00B8D4" d="M63.334,89.997c0-3.683-2.984-6.667-6.667-6.667l-13.333,0.004c-3.681,0-6.665,2.984-6.665,6.666 L63.334,89.997z" id="path7948" style="fill:#ae3f25;fill-opacity:1"></path> <path fill="#00B8D4" d="M83.333,73.33c0,3.683-2.984,6.668-6.666,6.668c-3.68,0-6.668-2.985-6.668-6.668 c0-3.681,2.988-6.665,6.668-6.665C80.349,66.665,83.333,69.649,83.333,73.33z" id="path7950" style="fill:#ae3f25;fill-opacity:1"></path> <path fill="#00B8D4" d="M89.999,89.997c0-3.683-2.984-6.667-6.666-6.667l-13.334,0.004V90L89.999,89.997z" id="path7952" style="fill:#ae3f25;fill-opacity:1"></path> <path fill="#00B8D4" d="M16.668,73.33c0,3.683,2.984,6.668,6.667,6.668c3.677,0,6.667-2.985,6.667-6.668 c0-3.681-2.988-6.665-6.667-6.665C19.653,66.665,16.668,69.649,16.668,73.33z" id="path7954" style="fill:#ae3f25;fill-opacity:1"></path> <path fill="#00B8D4" d="M10.001,89.997c0-3.683,2.984-6.667,6.667-6.667l13.333,0.004V90L10.001,89.997z" id="path7956" style="fill:#ae3f25;fill-opacity:1"></path> </svg> 